<?xml version="1.0" encoding="utf-8"?>
<!-- Generator: Adobe Illustrator 19.2.1, SVG Export Plug-In . SVG Version: 6.00 Build 0)  -->
<svg version="1.1" id="layer" xmlns="http://www.w3.org/2000/svg" xmlns:xlink="http://www.w3.org/1999/xlink" x="0px" y="0px"
	 viewBox="0 0 652 652" style="enable-background:new 0 0 652 652;" xml:space="preserve">
<style type="text/css">
	.st0{fill:#242C2F;}
	.st1{fill:#EC6608;}
</style>
<g>
	<path class="st0" d="M183.7,306.5c0-7.3-5-11.9-12.5-13.2c4.7-1.4,8.4-6.2,8.4-11.6s-2-8.3-5-10.6c-3.1-2.3-7.1-2.7-12.3-2.7h-11.6
		v53.1h14.3c6.2,0,10-0.8,13.2-3.4C181.3,315.4,183.7,312,183.7,306.5L183.7,306.5z M179.2,306.7c0,4-1.6,6.7-4.6,8.9
		c-3.1,2.1-7.3,2.2-11.1,2.2h-8.7v-22h8.7c3.8,0,8.1,0.2,11.1,2.3C177.7,300.2,179.2,302.7,179.2,306.7L179.2,306.7z M175.3,281.9
		c0,4.6-2.2,6.9-4.2,8.3c-2,1.5-5,2-9.3,2h-7.2v-19.9h8c4,0,6.4,0.5,8.5,1.6C173.2,275,175.3,277.3,175.3,281.9L175.3,281.9z
		 M225.6,317.7h-28.8l15.4-15c2.7-2.7,11.3-10,11.3-19.4c0-9.5-7.1-15.7-16.7-15.7c-9.6,0-14.3,6.9-16.1,11.1l3.1,2
		c1.6-3.4,5.4-9.4,13.1-9.4c7.7,0,12.5,5.1,12.5,12.1c0,6.9-5.5,12.7-9,16.1L191,318.4l0.8,3.1h33.9V317.7L225.6,317.7z
		 M268.8,306.5c0-7.3-5-11.9-12.5-13.2c4.7-1.4,8.4-6.2,8.4-11.6s-2-8.3-5-10.6c-3.1-2.3-7.1-2.7-12.3-2.7h-11.7v53.1H250
		c6.2,0,10-0.8,13.2-3.4C266.6,315.4,268.8,312,268.8,306.5L268.8,306.5z M264.4,306.7c0,4-1.6,6.7-4.6,8.9
		c-3.1,2.1-7.3,2.2-11.1,2.2H240v-22h8.7c3.8,0,8.1,0.2,11.1,2.3C262.8,300.2,264.4,302.7,264.4,306.7L264.4,306.7z M260.6,281.9
		c0,4.6-2.2,6.9-4.2,8.3c-2,1.5-5,2-9.3,2h-7.2v-19.9h8c4,0,6.4,0.5,8.5,1.6C258.5,275,260.6,277.3,260.6,281.9L260.6,281.9z
		 M347.9,268.4h-4.8l-18.3,45.3l-18.2-45.3h-4.7l-5.4,53.1h4.1l4.4-46.2l19.7,47.1h0.4l19.6-47l4.5,46.1h4.1L347.9,268.4
		L347.9,268.4z M389.8,300.3c0-6.2-1.4-8.9-3.4-11.1c-2.2-2.3-5.4-4-10.7-4c-5.4,0-9.6,2.1-11.9,3.6l1.6,3c0.8-0.6,5-3.1,10.5-3.1
		c5.6,0,10,3.2,10,9.7v2l-9.7,0.4c-9.6,0.4-14.3,4.6-14.3,10.7c0,6.2,5,10.7,11.9,10.7s10.7-4.2,12.1-5.8v5h4L389.8,300.3
		L389.8,300.3z M385.8,312.3c-1.7,2.7-5.5,6.5-11.3,6.5c-5.8,0-8.7-3.4-8.7-7.3c0-3.8,2.4-7.1,9.8-7.5l10.1-0.6V312.3L385.8,312.3z
		 M419.8,285.8c0,0-1.6-0.5-3.8-0.5c-3.8,0-7.8,2.5-9.1,7.3v-6.7h-4v35.7h4v-19.2c0-6.2,2-9.2,2.6-10c0.6-0.9,2.7-3.2,6.2-3.2
		c2,0,3,0.3,3.8,0.6L419.8,285.8L419.8,285.8z M440.2,299.4l14.7-13.6h-5l-17.1,16v-33.5h-4v53.1h4v-15.1l4.8-4.4l14.7,19.6h5
		L440.2,299.4L440.2,299.4z M493.7,301.9c0-9.6-6.8-16.7-16.1-16.7c-9.5,0-17.3,7.5-17.3,18.5c0,10.9,6.7,18.6,17.1,18.6
		s14.9-5.4,14.9-5.4l-2-2.9c0,0-4.4,4.6-12.5,4.6c-8.1,0-12.9-5.6-13.2-14.1h29C493.5,304.6,493.7,303.1,493.7,301.9L493.7,301.9z
		 M464.6,301.1c0.2-5,3.8-12.5,12.7-12.5s12.3,7.9,12.3,12.5H464.6L464.6,301.1z M518.8,317.7c0,0-1.6,1-3.8,1
		c-4.7,0-5.2-4.7-5.2-8.7v-20.5h9.1v-3.6h-9v-11.2h-4v11.4h-5.4v3.6h5.4v18.1c0,5.8,0.1,8.4,1.3,10.7c1.3,2.4,3.3,3.8,6.8,3.8
		c3.4,0,5.4-1.2,5.4-1.2L518.8,317.7L518.8,317.7z M532.7,285.9h-4v35.7h4V285.9L532.7,285.9z M575.1,300.2c0-8.5-2.4-15-12.6-15
		c-5.1,0-9.7,3-11.5,7.2v-6.6h-4v35.7h4v-17.7c0-8.5,3.7-15.2,11.4-15.2c7.7,0,8.7,5.9,8.7,11.7v21.2h4L575.1,300.2L575.1,300.2z
		 M620.9,285.9h-4v6.8c-2.4-4.2-7.1-7.4-13.5-7.4c-9.4,0-17.4,7-17.4,18.1s8.1,18.1,17.4,18.1c6.4,0,10.8-3,13.5-7.6v2.7
		c0,6.2-1.6,10-3.1,12.1c-1.6,2.1-5,4.6-10.7,4.6c-5.8,0-11.1-3-13.1-4.8l-2.3,3.1c0,0,5.8,5.4,15,5.4c9.3,0,13.5-4.6,15.4-7.7
		c2-3.1,3-7.3,3-15.4L620.9,285.9L620.9,285.9z M617,303.3c0,8.1-4.6,14.7-13.5,14.7s-13.5-6.5-13.5-14.7c0-8.1,4.6-14.6,13.5-14.6
		S617,295.2,617,303.3L617,303.3z"/>
	<path class="st1" d="M534,273.2c0-1.9-1.5-3.3-3.3-3.3c-1.9,0-3.3,1.5-3.3,3.3c0,1.9,1.5,3.3,3.3,3.3
		C532.5,276.4,534,275,534,273.2L534,273.2z"/>
	<path class="st1" d="M59.6,294.4c0-4.6,3.7-8.5,8.5-8.5c4.6,0,8.5,3.7,8.5,8.5c0,4.6-3.7,8.5-8.5,8.5S59.6,299.2,59.6,294.4
		L59.6,294.4z"/>
	<path class="st1" d="M108.2,294.4c0,2.1-1.7,3.7-3.7,3.7c-2.1,0-3.7-1.7-3.7-3.7c0-2.1,1.7-3.7,3.7-3.7
		C106.5,290.7,108.2,292.4,108.2,294.4L108.2,294.4z"/>
	<path class="st1" d="M96.8,319.5c0,2.1-1.7,3.7-3.7,3.7c-2.1,0-3.7-1.7-3.7-3.7c0-2.1,1.7-3.7,3.7-3.7
		C95.2,315.8,96.8,317.5,96.8,319.5L96.8,319.5z"/>
	<path class="st1" d="M93.1,265.6c2.1,0,3.7,1.7,3.7,3.7s-1.7,3.7-3.7,3.7c-2.1,0-3.7-1.7-3.7-3.7S91,265.6,93.1,265.6L93.1,265.6z"
		/>
	<path class="st1" d="M73.7,258c0,3.2-2.6,5.6-5.6,5.6c-3.2,0-5.6-2.6-5.6-5.6c0-3.2,2.6-5.6,5.6-5.6S73.7,255,73.7,258L73.7,258z"
		/>
	<path class="st1" d="M73.7,330.9c0,3.2-2.6,5.6-5.6,5.6c-3.2,0-5.6-2.6-5.6-5.6c0-3.2,2.6-5.6,5.6-5.6S73.7,327.8,73.7,330.9
		L73.7,330.9z"/>
	<path class="st1" d="M43.4,294.4c0,6.2-5,11.2-11.2,11.2s-11.2-5-11.2-11.2c0-6.2,5-11.2,11.2-11.2S43.4,288.2,43.4,294.4
		L43.4,294.4z"/>
	<path class="st1" d="M53.7,269.3c0,4.6-3.7,8.5-8.5,8.5c-4.6,0-8.5-3.7-8.5-8.5c0-4.6,3.7-8.5,8.5-8.5
		C49.9,260.9,53.7,264.7,53.7,269.3L53.7,269.3z"/>
	<path class="st1" d="M45.3,311.2c4.6,0,8.5,3.7,8.5,8.5c0,4.6-3.7,8.5-8.5,8.5c-4.6,0-8.5-3.7-8.5-8.5S40.6,311.2,45.3,311.2
		L45.3,311.2z"/>
	<path class="st0" d="M153.2,364.5h-1.6v20.1h1.6V364.5L153.2,364.5z M168.5,376.5c0-3.2-0.9-5.7-4.8-5.7c-2,0-3.7,1.2-4.3,2.8v-2.5
		h-1.5v13.5h1.5v-6.7c0-3.2,1.4-5.7,4.3-5.7c3,0,3.2,2.3,3.2,4.4v8h1.6L168.5,376.5L168.5,376.5z M181,380.9c0-2.6-2.6-3.4-4.2-4
		c-1.7-0.6-3.2-1.2-3.2-2.6c0-1.4,1.1-2.2,2.6-2.2s2.5,0.5,3.3,1.6l0.9-0.9c-1.1-1.2-2.3-1.9-4.2-1.9s-4.1,1.2-4.1,3.6
		s2.6,3.3,3.7,3.7c1.2,0.4,3.5,1,3.5,2.8s-1.5,2.6-3.2,2.6c-1.7,0-3.1-0.9-3.9-2.2l-1.1,0.9c0.9,1.4,2.5,2.7,4.9,2.7
		C178.8,384.9,181,383.4,181,380.9L181,380.9z M186.4,366.3c0-0.7-0.6-1.3-1.3-1.3s-1.3,0.6-1.3,1.3c0,0.7,0.6,1.3,1.3,1.3
		C185.9,367.5,186.4,367,186.4,366.3L186.4,366.3z M185.9,371h-1.5v13.5h1.5V371L185.9,371z M202.8,371h-1.6v2.6
		c-0.9-1.6-2.7-2.8-5.1-2.8c-3.5,0-6.6,2.7-6.6,6.9c0,4.2,3.1,6.9,6.6,6.9c2.5,0,4.1-1.2,5.1-2.9v1c0,2.4-0.6,3.7-1.2,4.6
		c-0.6,0.8-1.9,1.8-4,1.8s-4.2-1.1-4.9-1.9l-0.9,1.2c0,0,2.2,2.1,5.7,2.1c3.5,0,5.1-1.8,5.8-3c0.7-1.2,1.1-2.8,1.1-5.8V371
		L202.8,371z M201.3,377.7c0,3.1-1.8,5.5-5.1,5.5s-5.1-2.5-5.1-5.5c0-3.1,1.8-5.5,5.1-5.5C199.6,372.2,201.3,374.7,201.3,377.7
		L201.3,377.7z M218,376.5c0-3.2-0.9-5.7-4.8-5.7c-2,0-3.7,1.2-4.3,2.8v-9.1h-1.5v20.1h1.5v-6.7c0-3.2,1.4-5.7,4.3-5.7
		c3,0,3.2,2.3,3.2,4.4v8h1.6L218,376.5L218,376.5z M227.9,383.1c0,0-0.6,0.4-1.5,0.4c-1.8,0-2-1.8-2-3.2v-7.8h3.4v-1.4h-3.4v-4.3
		h-1.6v4.3h-2.1v1.4h2.1v6.9c0,2.2,0,3.2,0.5,4c0.5,0.9,1.3,1.5,2.6,1.5s2.1-0.4,2.1-0.4L227.9,383.1L227.9,383.1z M240,376.2
		c0-0.8-0.6-1.4-1.4-1.4s-1.4,0.6-1.4,1.4c0,0.8,0.6,1.4,1.4,1.4C239.5,377.6,240,377,240,376.2L240,376.2z M267.3,374.6
		c0-3.6-1.8-6-3.1-7.3c-1.3-1.3-3.8-2.8-7.4-2.8h-5.5v20.1h5.5c3.5,0,6-1.5,7.4-2.8C265.5,380.5,267.3,378.2,267.3,374.6
		L267.3,374.6z M265.6,374.6c0,3.2-1.5,5.3-2.8,6.5c-1.3,1.2-3.3,2.2-6.1,2.2h-3.8V366h3.8c2.8,0,4.8,1,6.1,2.2
		C264.1,369.2,265.6,371.3,265.6,374.6L265.6,374.6z M282.4,377.1c0-3.6-2.6-6.3-6.1-6.3s-6.6,2.9-6.6,7c0,4.1,2.6,7.1,6.5,7.1
		c3.9,0,5.6-2.1,5.6-2.1l-0.7-1.1c0,0-1.7,1.8-4.7,1.8c-3.1,0-4.8-2.2-5-5.3h11C282.3,378.2,282.4,377.6,282.4,377.1L282.4,377.1z
		 M271.4,376.8c0.1-1.9,1.5-4.7,4.8-4.7c3.3,0,4.6,3,4.6,4.7H271.4L271.4,376.8z M294.5,371l-4.6,11.3l-4.6-11.3h-1.6l5.7,13.6h1.2
		l5.7-13.6H294.5L294.5,371z M310,377.1c0-3.6-2.6-6.3-6.1-6.3c-3.5,0-6.6,2.9-6.6,7c0,4.1,2.6,7.1,6.5,7.1s5.6-2.1,5.6-2.1
		l-0.7-1.1c0,0-1.7,1.8-4.7,1.8s-4.8-2.2-5-5.3h11C309.9,378.2,310,377.6,310,377.1L310,377.1z M298.9,376.8
		c0.1-1.9,1.5-4.7,4.8-4.7c3.3,0,4.6,3,4.6,4.7H298.9L298.9,376.8z M314.9,364.5h-1.5v20.1h1.5V364.5L314.9,364.5z M332.3,377.9
		c0-4-3.1-7.1-6.9-7.1s-6.9,3-6.9,7.1c0,4,3.1,7,6.9,7S332.3,381.9,332.3,377.9L332.3,377.9z M330.7,377.8c0,3.2-2.1,5.7-5.3,5.7
		c-3.2,0-5.3-2.6-5.3-5.7s2.1-5.7,5.3-5.7C328.7,372.1,330.7,374.7,330.7,377.8L330.7,377.8z M349.2,377.9c0-4-2.6-7.1-6.7-7.1
		c-2.1,0-3.9,0.9-5,2.9V371H336v19.1h1.5V382c1.3,2.1,3.2,2.9,5.1,2.9C346.5,384.9,349.2,381.9,349.2,377.9L349.2,377.9z
		 M347.6,377.9c0,3.2-1.9,5.6-5.1,5.6c-3.2,0-5.1-2.6-5.1-5.6c0-3.2,1.8-5.7,5.1-5.7C345.7,372.1,347.6,374.8,347.6,377.9
		L347.6,377.9z M371,376.3c0-2.8-0.8-5.5-4.5-5.5c-1.8,0-3.4,1.1-4.3,2.9c-0.6-1.8-1.9-2.9-4-2.9c-1.8,0-3.5,1.3-4,2.8v-2.5h-1.5
		v13.5h1.5v-7.1c0-2.9,1.4-5.4,4-5.4c2.4,0,3,2,3,4.2v8.2h1.5v-7.1c0-2.9,1.4-5.4,4-5.4s3,2.6,3,4.2v8.2h1.5V376.3L371,376.3z
		 M387,377.1c0-3.6-2.6-6.3-6.1-6.3c-3.5,0-6.6,2.9-6.6,7c0,4.1,2.6,7.1,6.5,7.1c3.9,0,5.6-2.1,5.6-2.1l-0.7-1.1
		c0,0-1.7,1.8-4.7,1.8s-4.8-2.2-5-5.3h10.9C386.9,378.2,387,377.6,387,377.1L387,377.1z M375.9,376.8c0.1-1.9,1.5-4.7,4.8-4.7
		c3.3,0,4.6,3,4.6,4.7H375.9L375.9,376.8z M400.9,376.5c0-3.2-0.9-5.7-4.8-5.7c-2,0-3.7,1.2-4.3,2.8v-2.5h-1.5v13.5h1.5v-6.7
		c0-3.2,1.4-5.7,4.3-5.7s3.2,2.3,3.2,4.4v8h1.6V376.5L400.9,376.5z M410.6,383.1c0,0-0.6,0.4-1.5,0.4c-1.8,0-2-1.8-2-3.2v-7.8h3.4
		v-1.4h-3.4v-4.3h-1.6v4.3h-2v1.4h2.1v6.9c0,2.2,0,3.2,0.5,4c0.5,0.9,1.3,1.5,2.6,1.5c1.3,0,2.1-0.4,2.1-0.4L410.6,383.1
		L410.6,383.1z M422.8,376.2c0-0.8-0.6-1.4-1.4-1.4s-1.4,0.6-1.4,1.4c0,0.8,0.6,1.4,1.4,1.4C422.3,377.6,422.8,377,422.8,376.2
		L422.8,376.2z M445.4,364.5h-13.5v1.4h6v18.7h1.6v-18.7h6L445.4,364.5L445.4,364.5z M451.6,371c0,0-0.6-0.2-1.5-0.2
		c-1.5,0-3,0.9-3.4,2.8V371h-1.5v13.5h1.5v-7.3c0-2.4,0.7-3.4,1-3.7c0.2-0.3,1-1.2,2.4-1.2c0.7,0,1.2,0.1,1.5,0.2L451.6,371
		L451.6,371z M462.9,376.5c0-2.4-0.5-3.3-1.3-4.2c-0.8-0.9-2.1-1.5-4-1.5c-2.1,0-3.6,0.8-4.5,1.4l0.6,1.1c0.3-0.2,1.9-1.2,4-1.2
		c2.2,0,3.7,1.2,3.7,3.7v0.7l-3.7,0.1c-3.6,0.1-5.4,1.8-5.4,4c0,2.4,1.9,4,4.5,4s4-1.6,4.5-2.2v1.9h1.6L462.9,376.5L462.9,376.5z
		 M461.3,381.1c-0.7,1-2.1,2.5-4.3,2.5c-2.2,0-3.2-1.3-3.2-2.8s0.9-2.7,3.7-2.9l3.8-0.2V381.1L461.3,381.1z M469.2,366.3
		c0-0.7-0.6-1.3-1.3-1.3c-0.7,0-1.3,0.6-1.3,1.3c0,0.7,0.6,1.3,1.3,1.3C468.6,367.5,469.2,367,469.2,366.3L469.2,366.3z M468.7,371
		h-1.5v13.5h1.5V371L468.7,371z M483.9,376.5c0-3.2-0.9-5.7-4.8-5.7c-2,0-3.7,1.2-4.3,2.8v-2.5h-1.5v13.5h1.5v-6.7
		c0-3.2,1.4-5.7,4.3-5.7c3,0,3.2,2.3,3.2,4.4v8h1.6V376.5L483.9,376.5z M490.4,366.3c0-0.7-0.6-1.3-1.3-1.3c-0.7,0-1.3,0.6-1.3,1.3
		c0,0.7,0.6,1.3,1.3,1.3C489.8,367.5,490.4,367,490.4,366.3L490.4,366.3z M489.9,371h-1.5v13.5h1.5V371L489.9,371z M505.2,376.5
		c0-3.2-0.9-5.7-4.8-5.7c-2,0-3.7,1.2-4.3,2.8v-2.5h-1.5v13.5h1.5v-6.7c0-3.2,1.4-5.7,4.3-5.7c3,0,3.2,2.3,3.2,4.4v8h1.6V376.5
		L505.2,376.5z M521.7,371h-1.6v2.6c-0.9-1.6-2.7-2.8-5.1-2.8c-3.5,0-6.6,2.7-6.6,6.9c0,4.2,3.1,6.9,6.6,6.9c2.5,0,4.1-1.2,5.1-2.9
		v1c0,2.4-0.6,3.7-1.2,4.6c-0.6,0.8-1.9,1.8-4,1.8s-4.2-1.1-4.9-1.9l-0.9,1.2c0,0,2.2,2.1,5.7,2.1s5.1-1.8,5.8-3
		c0.7-1.2,1.1-2.8,1.1-5.8L521.7,371L521.7,371z M520.2,377.7c0,3.1-1.8,5.5-5.1,5.5c-3.3,0-5.1-2.5-5.1-5.5c0-3.1,1.8-5.5,5.1-5.5
		C518.5,372.2,520.2,374.7,520.2,377.7L520.2,377.7z M535.4,376.2c0-0.8-0.6-1.4-1.4-1.4c-0.8,0-1.4,0.6-1.4,1.4
		c0,0.8,0.6,1.4,1.4,1.4S535.4,377,535.4,376.2L535.4,376.2z M557.8,383.1h-9.5v-8.6h8.9v-1.4h-8.9v-7.3h9.4v-1.4h-10.9v20.1h11.1
		V383.1L557.8,383.1z M570.1,371l-4.6,11.3l-4.6-11.3h-1.7l5.7,13.6h1.2l5.7-13.6H570.1L570.1,371z M585.4,377.1
		c0-3.6-2.6-6.3-6.1-6.3c-3.5,0-6.6,2.9-6.6,7c0,4.1,2.6,7.1,6.5,7.1c3.9,0,5.6-2.1,5.6-2.1l-0.7-1.1c0,0-1.7,1.8-4.7,1.8
		c-3.1,0-4.8-2.2-5-5.3h11C585.3,378.2,585.4,377.6,585.4,377.1L585.4,377.1z M574.4,376.8c0.1-1.9,1.5-4.7,4.8-4.7
		c3.3,0,4.6,3,4.6,4.7H574.4L574.4,376.8z M599.4,376.5c0-3.2-0.9-5.7-4.8-5.7c-2,0-3.7,1.2-4.3,2.8v-2.5h-1.5v13.5h1.5v-6.7
		c0-3.2,1.4-5.7,4.3-5.7s3.2,2.3,3.2,4.4v8h1.6V376.5L599.4,376.5z M609.1,383.1c0,0-0.6,0.4-1.5,0.4c-1.8,0-2-1.8-2-3.2v-7.8h3.4
		v-1.4h-3.4v-4.3h-1.6v4.3H602v1.4h2.1v6.9c0,2.2,0,3.2,0.5,4c0.5,0.9,1.3,1.5,2.6,1.5s2.1-0.4,2.1-0.4L609.1,383.1L609.1,383.1z
		 M620.2,380.9c0-2.6-2.6-3.4-4.2-4s-3.2-1.2-3.2-2.6c0-1.4,1.1-2.2,2.6-2.2c1.5,0,2.5,0.5,3.3,1.6l0.9-0.9
		c-1.1-1.2-2.3-1.9-4.2-1.9c-2,0-4.1,1.2-4.1,3.6s2.6,3.3,3.7,3.7c1.2,0.4,3.5,1,3.5,2.8s-1.5,2.6-3.2,2.6c-1.7,0-3.1-0.9-3.9-2.2
		l-1.1,0.9c0.9,1.4,2.5,2.7,4.9,2.7C617.9,384.9,620.2,383.4,620.2,380.9L620.2,380.9z"/>
</g>
</svg>
