<svg
	xmlns="http://www.w3.org/2000/svg" style="display: none;">
	<symbol id="analytics" viewBox="0 0 480 480">
		<title>analytics</title>
		<g>
			<g>
				<path d="M112,32c-3.144,0-6.224,0.232-9.272,0.584c-0.832,0.096-1.648,0.256-2.472,0.376c-2.264,0.336-4.504,0.752-6.704,1.272 c-0.928,0.216-1.84,0.456-2.76,0.712c-2.128,0.584-4.216,1.264-6.272,2.024c-0.864,0.32-1.744,0.608-2.6,0.952 c-2.704,1.104-5.352,2.312-7.896,3.688c-0.112,0.064-0.232,0.104-0.344,0.16c-0.008,0-0.008,0.008-0.008,0.008 c-0.456,0.248-0.856,0.568-1.304,0.824c-2.08,1.192-4.104,2.456-6.064,3.824c-1.104,0.768-2.152,1.584-3.208,2.4 c-1.256,0.976-2.488,1.992-3.688,3.04c-1.128,0.992-2.248,1.976-3.32,3.016c-1.064,1.04-2.064,2.152-3.064,3.256 c-1.576,1.728-3.08,3.504-4.496,5.36c-1.096,1.432-2.192,2.872-3.192,4.376c-0.696,1.056-1.32,2.152-1.968,3.24 c-0.968,1.624-1.888,3.272-2.744,4.96c-0.456,0.912-0.912,1.824-1.336,2.76c-1.088,2.376-2.056,4.8-2.912,7.288 c-0.104,0.304-0.232,0.6-0.336,0.904c-2.048,6.208-3.312,12.752-3.768,19.52c0,0.048-0.016,0.096-0.016,0.144 c0,0.024,0.008,0.04,0.008,0.064C32.152,108.496,32,110.224,32,112c0,44.112,35.888,80,80,80c7.232,0,14.208-1.048,20.872-2.856 c0.056-0.016,0.104-0.008,0.16-0.024c0.112-0.032,0.208-0.072,0.32-0.104c1.824-0.504,3.616-1.08,5.392-1.712 c0.464-0.168,0.928-0.336,1.384-0.504c1.672-0.632,3.328-1.304,4.944-2.04c0.504-0.232,1-0.48,1.504-0.728 c1.584-0.76,3.152-1.536,4.672-2.4c0.32-0.184,0.624-0.392,0.944-0.576c3.352-1.96,6.56-4.128,9.576-6.536 c0.112-0.088,0.232-0.168,0.344-0.256c1.176-0.944,2.288-1.96,3.408-2.976c0.624-0.56,1.256-1.112,1.864-1.688 c1.04-1,2.032-2.04,3.016-3.096c0.6-0.648,1.2-1.288,1.776-1.952c0.952-1.088,1.88-2.2,2.776-3.344 c0.52-0.664,1.008-1.336,1.504-2.016c0.888-1.208,1.768-2.424,2.592-3.68c0.36-0.552,0.688-1.136,1.032-1.696 c2.688-4.352,4.952-8.976,6.776-13.824c0.352-0.944,0.72-1.888,1.04-2.848c0.4-1.192,0.744-2.408,1.088-3.624 c0.328-1.176,0.64-2.352,0.912-3.544c0.256-1.112,0.496-2.216,0.712-3.344c0.272-1.464,0.488-2.944,0.68-4.432 c0.12-0.92,0.264-1.824,0.344-2.752c0.224-2.456,0.368-4.936,0.368-7.448C192,67.888,156.112,32,112,32z M52.36,88.944 c0.128-0.32,0.232-0.656,0.368-0.984c0.464-1.168,1.016-2.288,1.552-3.416c0.384-0.808,0.752-1.64,1.168-2.432 c0.384-0.728,0.808-1.416,1.216-2.128c0.664-1.136,1.32-2.28,2.048-3.376c0.28-0.416,0.584-0.816,0.872-1.232 c0.912-1.304,1.856-2.592,2.856-3.824c0.216-0.264,0.448-0.512,0.664-0.776c1.104-1.304,2.248-2.576,3.448-3.792 c0.232-0.232,0.48-0.456,0.712-0.688c1.2-1.176,2.44-2.312,3.728-3.384c0.344-0.288,0.712-0.56,1.064-0.848 c0.824-0.664,1.688-1.28,2.544-1.904l7.232,13.248L98,103.04l-48.76-3.256C49.952,96.048,51.024,92.432,52.36,88.944z M112,176 c-34.016,0-61.848-26.704-63.808-60.24l57.592,3.84l15.192,55.696C118.032,175.712,115.056,176,112,176z M175.344,120.672 c-0.088,0.632-0.184,1.264-0.288,1.888c-0.976,5.768-2.704,11.312-5.136,16.496c-0.16,0.344-0.328,0.688-0.496,1.024 c-2.584,5.256-5.872,10.136-9.768,14.488c-0.232,0.256-0.456,0.512-0.688,0.76c-4.008,4.336-8.608,8.136-13.72,11.248 c-0.216,0.136-0.432,0.264-0.656,0.4c-2.608,1.552-5.328,2.944-8.176,4.12l-16.688-61.2c-0.168-0.6-0.4-1.176-0.696-1.728 L88.656,52.472c0.768-0.304,1.544-0.584,2.328-0.856c0.896-0.312,1.792-0.648,2.704-0.92c1-0.296,2.024-0.536,3.04-0.784 c0.984-0.24,1.968-0.512,2.96-0.704c1.12-0.216,2.264-0.36,3.4-0.52c0.896-0.128,1.792-0.296,2.696-0.384 C107.824,48.12,109.896,48,112,48c35.288,0,64,28.712,64,64C176,114.936,175.736,117.824,175.344,120.672z"/>
			</g>
		</g>
		<g>
			<g>
				<path d="M440,0H40C17.944,0,0,17.944,0,40v288v16c0,22.056,17.944,40,40,40h176v32h-64c-22.056,0-40,17.944-40,40v16 c0,4.416,3.584,8,8,8h240c4.416,0,8-3.584,8-8v-16c0-22.056-17.944-40-40-40h-64v-32h176c22.056,0,40-17.944,40-40v-16V40 C480,17.944,462.056,0,440,0z M328,432c13.232,0,24,10.768,24,24v8H128v-8c0-13.232,10.768-24,24-24h72h32H328z M232,416v-32h16 v32H232z M464,344c0,13.232-10.768,24-24,24H256h-32H40c-13.232,0-24-10.768-24-24v-8h448V344z M464,320H16V40 c0-13.232,10.768-24,24-24h400c13.232,0,24,10.768,24,24V320z"/>
			</g>
		</g>
		<g>
			<g>
				<path d="M224,288V32h-16v264c0,4.416,3.584,8,8,8h232v-16H224z"/>
			</g>
		</g>
		<g>
			<g>
				<path d="M184,208H40c-4.416,0-8,3.584-8,8v80c0,4.416,3.584,8,8,8h144c4.416,0,8-3.584,8-8v-80C192,211.584,188.416,208,184,208z M176,288H48v-64h128V288z"/>
			</g>
		</g>
		<g>
			<g>
				<path d="M434.336,162.336l-29.28,29.272l-21.2-113.088c-0.68-3.64-3.768-6.336-7.464-6.512c-3.72-0.168-7.032,2.176-8.08,5.728 l-39.248,133.456l-24.328,18.24l-27.096-27.096c-1.824-1.824-4.416-2.64-6.936-2.24c-2.536,0.416-4.72,2.016-5.872,4.32l-32,64 l14.312,7.16l27.048-54.072l24.152,24.152c2.816,2.816,7.272,3.136,10.456,0.744l32-24c1.376-1.032,2.384-2.488,2.872-4.144 l30.6-104.04l17.856,95.256c0.544,2.92,2.664,5.296,5.504,6.168c2.832,0.856,5.92,0.112,8.016-1.992l40-40L434.336,162.336z"/>
			</g>
		</g>
	</symbol>
	<symbol id="referral" viewBox="0 0 64 64">
		<title>referral</title>
		<circle cx="7" cy="25" r="1"/>
		<circle cx="11" cy="25" r="1"/>
		<path d="M13,35a1,1,0,0,0,0-2H11a1,1,0,0,0,0,2Z"/>
		<path d="M6,39a1,1,0,0,0,1,1h6a1,1,0,0,0,0-2H7A1,1,0,0,0,6,39Z"/>
		<path d="M7,45h6a1,1,0,0,0,0-2H7a1,1,0,0,0,0,2Z"/>
		<path d="M47,55.56a1,1,0,0,0-1,1V60H4V30h9a1,1,0,0,0,0-2H4V22h9a1,1,0,0,0,0-2H3a1,1,0,0,0-1,1V61a1,1,0,0,0,1,1H47a1,1,0,0,0,1-1V56.56A1,1,0,0,0,47,55.56Z"/>
		<path d="M19,56a1,1,0,0,0,0,2h2a1,1,0,0,0,1-1V49a1,1,0,0,0-1-1H7a1,1,0,0,0-1,1v8a1,1,0,0,0,1,1h8a1,1,0,0,0,0-2H8V50H20v6Z"/>
		<path d="M57.92,41.38a1,1,0,0,0-.21-1.09l-10-10a1,1,0,0,0-1.42,0l-10,10a1,1,0,0,0-.21,1.09A1,1,0,0,0,37,42h4.93A7,7,0,0,1,35,48H27a1,1,0,0,0-1,1v4a1,1,0,0,0,2,0V50h7a9,9,0,0,0,9-9,1,1,0,0,0-1-1H39.41L47,32.41,54.59,40H51a1,1,0,0,0-1,1A15,15,0,0,1,35,56H27a1,1,0,0,0,0,2h8A17,17,0,0,0,52,42h5A1,1,0,0,0,57.92,41.38Z"/>
		<circle cx="21" cy="9" r="1"/>
		<circle cx="25" cy="9" r="1"/>
		<circle cx="29" cy="9" r="1"/>
		<path d="M38,8a1,1,0,0,0,0,2h9a1,1,0,0,0,0-2Z"/>
		<path d="M51,8a1,1,0,0,0,0,2h5a1,1,0,0,0,0-2Z"/>
		<path d="M39,34a1,1,0,0,0,1-1V28a1,1,0,0,0-2,0v4H35.62l-3.73-7.45a1,1,0,0,0-1.78,0L29,26.76l-2.11-4.21a1,1,0,0,0-1.78,0L22,28.76V18H38v6a1,1,0,0,0,2,0V17a1,1,0,0,0-1-1H21a1,1,0,0,0-1,1V33a1,1,0,0,0,1,1Zm-8-6.76L33.38,32H31.62l-1.5-3Zm-5-2L29.38,32H22.62Z"/>
		<path d="M31,36H25a1,1,0,0,0,0,2h6a1,1,0,0,0,0-2Z"/>
		<path d="M31,40H22a1,1,0,0,0,0,2h9a1,1,0,0,0,0-2Z"/>
		<path d="M57,18a1,1,0,0,0,0-2H45a1,1,0,0,0-1,1v4a1,1,0,0,0,1,1H57a1,1,0,0,0,0-2H46V18Z"/>
		<path d="M57,24H49a1,1,0,0,0,0,2h8a1,1,0,0,0,0-2Z"/>
		<circle cx="34" cy="21" r="1"/>
		<path d="M61,4H17a1,1,0,0,0-1,1V45a1,1,0,0,0,1,1H36.92a1,1,0,0,0,0-2H18V14H57a1,1,0,0,0,0-2H34V6H60V44H54.48a1,1,0,1,0,0,2H61a1,1,0,0,0,1-1V5A1,1,0,0,0,61,4ZM32,12H18V6H32Z"/>
	</symbol>
	<symbol id="benchmark" viewBox="0 0 64 64">
		<title>benchmark</title>
		<path d="m62 20c0-9.925-8.075-18-18-18s-18 8.075-18 18c0 1.527.212 3.001.571 4.418l-1.781 1.189c-.501-.376-1.117-.607-1.79-.607s-1.289.231-1.79.607l-4.31-2.878c.059-.235.1-.476.1-.729 0-1.654-1.346-3-3-3s-3 1.346-3 3c0 .253.041.494.1.729l-4.31 2.878c-.501-.376-1.117-.607-1.79-.607-1.654 0-3 1.346-3 3s1.346 3 3 3 3-1.346 3-3c0-.253-.041-.494-.1-.729l4.31-2.878c.501.376 1.117.607 1.79.607s1.289-.231 1.79-.607l4.31 2.878c-.059.235-.1.476-.1.729 0 1.654 1.346 3 3 3s3-1.346 3-3c0-.253-.041-.494-.1-.729l1.298-.867c2.244 5.864 7.459 10.254 13.802 11.325v4.271h-1c-.553 0-1 .448-1 1v14c0 2.757 2.243 5 5 5s5-2.243 5-5v-14c0-.552-.447-1-1-1h-1v-4.271c8.499-1.435 15-8.828 15-17.729zm-57 9c-.552 0-1-.449-1-1s.448-1 1-1 1 .449 1 1-.448 1-1 1zm9-6c-.552 0-1-.449-1-1s.448-1 1-1 1 .449 1 1-.448 1-1 1zm9 6c-.552 0-1-.449-1-1s.448-1 1-1 1 .449 1 1-.448 1-1 1zm5.908-3.737 1.302-.87c.501.376 1.117.607 1.79.607s1.289-.231 1.79-.607l4.31 2.878c-.059.235-.1.476-.1.729 0 1.654 1.346 3 3 3s3-1.346 3-3c0-.462-.113-.894-.301-1.285l8.301-8.301v4.586h2v-7c0-.552-.447-1-1-1h-7v2h4.586l-8.301 8.301c-.391-.188-.823-.301-1.285-.301-.673 0-1.289.231-1.79.607l-4.31-2.878c.059-.235.1-.476.1-.729 0-1.654-1.346-3-3-3s-3 1.346-3 3c0 .253.041.494.1.729l-.769.513c-.216-1.047-.331-2.131-.331-3.242 0-8.822 7.178-16 16-16s16 7.178 16 16-7.178 16-16 16c-6.977 0-12.909-4.496-15.092-10.737zm2.092-3.263c0-.551.448-1 1-1s1 .449 1 1-.448 1-1 1-1-.449-1-1zm11 6c0 .551-.448 1-1 1s-1-.449-1-1 .448-1 1-1 1 .449 1 1zm5 29c0 1.654-1.346 3-3 3s-3-1.346-3-3v-13h6zm-2-15h-2v-4.051c.333.019.662.051 1 .051s.667-.032 1-.051z"/>
		<path d="m33.352 25.538-1.773.924c1.146 2.198 2.859 4.06 4.957 5.384l1.068-1.691c-1.8-1.136-3.27-2.733-4.252-4.617z"/>
		<path d="m58 20c0-7.72-6.28-14-14-14-6.524 0-12.128 4.429-13.626 10.77l1.947.46c1.283-5.435 6.086-9.23 11.679-9.23 6.617 0 12 5.383 12 12s-5.383 12-12 12c-.618 0-1.24-.047-1.848-.141l-.305 1.977c.709.109 1.432.164 2.153.164 7.72 0 14-6.28 14-14z"/>
		<path d="m2 2h6v2h-6z"/>
		<path d="m10 2h14v2h-14z"/>
		<path d="m2 6h13v2h-13z"/>
		<path d="m17 6h7v2h-7z"/>
		<path d="m2 10h2v2h-2z"/>
		<path d="m6 10h6v2h-6z"/>
		<path d="m14 10h10v2h-10z"/>
		<path d="m2 14h7v2h-7z"/>
		<path d="m11 14h13v2h-13z"/>
		<path d="m36 50c0-.552-.447-1-1-1h-5v-4c0-.552-.447-1-1-1h-5v-4c0-.552-.447-1-1-1h-5v-4c0-.552-.447-1-1-1h-6c-.553 0-1 .448-1 1v9h-5c-.553 0-1 .448-1 1v15h-2v2h36v-2h-2zm-30-4h4v14h-4zm6-1v-9h4v4 20h-4zm6-4h4v4 15h-4zm6 5h4v4 10h-4zm6 14v-9h4v9z"/>
	</symbol>
	<symbol id="subscribe" viewBox="0 0 64 64">
		<title>subscribe</title>
		<path d="m35 31a1 1 0 0 0 1-1v-1a4 4 0 0 0 -2.69-3.76 3.93 3.93 0 0 0 .69-2.24 4 4 0 0 0 -4-4 3.71 3.71 0 0 0 -.93.12 5 5 0 1 0 -8 6 4 4 0 0 0 -3.07 3.88v3a1 1 0 0 0 2 0v-3a2 2 0 0 1 2-2h6a2 2 0 0 1 2 2v3a1 1 0 0 0 2 0v-3a3.91 3.91 0 0 0 -.56-2h.56a2 2 0 0 1 2 2v1a1 1 0 0 0 1 1zm-3-8a2 2 0 0 1 -2 2 2 2 0 0 1 -.86-.2 5 5 0 0 0 .86-2.8 5.15 5.15 0 0 0 -.1-1 2 2 0 0 1 2.1 2zm-7-4a3 3 0 0 1 2.74 1.79 3.07 3.07 0 0 1 .26 1.21 3 3 0 0 1 -.92 2.15 3 3 0 1 1 -2.08-5.15z"/>
		<path d="m44 23a1 1 0 0 0 0-2h-4a1 1 0 0 0 -1 1v8a1 1 0 0 0 1 1h4a1 1 0 0 0 1-1v-4a1 1 0 0 0 -1-1h-3v-2zm-1 6h-2v-2h2z"/>
		<path d="m49 25a1 1 0 0 0 1-1v-8a3 3 0 0 0 -3-3h-30a3 3 0 0 0 -3 3v18a3 3 0 0 0 3 3h22.59l5.7 5.71a1 1 0 0 0 .71.29.84.84 0 0 0 .38-.08 1 1 0 0 0 .62-.92v-5a3 3 0 0 0 3-3v-6a1 1 0 0 0 -2 0v6a1 1 0 0 1 -1 1h-1a1 1 0 0 0 -1 1v3.59l-4.29-4.3a1 1 0 0 0 -.71-.29h-23a1 1 0 0 1 -1-1v-18a1 1 0 0 1 1-1h30a1 1 0 0 1 1 1v8a1 1 0 0 0 1 1z"/>
		<path d="m61 45h-52v-12a1 1 0 0 0 -2 0v12h-4a1 1 0 0 0 -1 1v2a7 7 0 0 0 7 7h31a1 1 0 0 0 0-2h-31a5 5 0 0 1 -5-5v-1h56v1a5 5 0 0 1 -5 5h-11a1 1 0 0 0 0 2h11a7 7 0 0 0 7-7v-2a1 1 0 0 0 -1-1z"/>
		<path d="m8 30a1 1 0 0 0 1-1v-15a3 3 0 0 1 3-3h40a3 3 0 0 1 3 3v28a1 1 0 0 0 2 0v-28a5 5 0 0 0 -5-5h-40a5 5 0 0 0 -5 5v15a1 1 0 0 0 1 1z"/>
		<circle cx="11" cy="50" r="1"/>
		<circle cx="15" cy="50" r="1"/>
		<circle cx="49" cy="50" r="1"/>
		<circle cx="53" cy="50" r="1"/>
		<path d="m24 49a1 1 0 0 0 0 2h16a1 1 0 0 0 0-2z"/>
		<path d="m17 40a1 1 0 0 0 0 2h11a1 1 0 0 0 0-2z"/>
		<path d="m33 40a1 1 0 0 0 0 2h4a1 1 0 0 0 0-2z"/>
	</symbol>
	<symbol id="trend" viewBox="0 -45 512 512">
		<title>trend</title>
		<path d="m494.5 367.742188h-15v-137.742188c0-4.144531-3.359375-7.5-7.5-7.5s-7.5 3.355469-7.5 7.5v137.742188h-417v-262.5c0-1.355469 1.144531-2.5 2.5-2.5h240.5v10h-142.5c-4.140625 0-7.5 3.355468-7.5 7.5 0 4.144531 3.359375 7.5 7.5 7.5h142.5v2.914062c0 6.890625 5.605469 12.5 12.5 12.5l31.429688-.003906c.488281.050781 1.523437.589844 1.804687.90625l10.253906 14.605468c2.175781 3.101563 5.460938 4.878907 9.011719 4.878907s6.835938-1.777344 9.011719-4.878907l10.210937-14.550781c.324219-.371093 1.359375-.910156 1.777344-.960937h31.5c6.894531 0 12.5-5.605469 12.5-12.5v-2.910156h19v176.257812h-30.234375c-3.136719-9.289062-11.929687-16-22.265625-16s-19.128906 6.710938-22.265625 16h-43.46875c-3.136719-9.289062-11.929687-16-22.265625-16s-19.128906 6.710938-22.265625 16h-43.46875c-3.140625-9.289062-11.929687-16-22.269531-16-10.335938 0-19.125 6.710938-22.265625 16h-43.46875c-3.136719-9.289062-11.929688-16-22.265625-16-10.335938 0-19.125 6.710938-22.265625 16h-27.730469c-.167969 0-.335938.015625-.5.023438v-39.503907l47.09375-47.097656 21.261719 21.261719c3.308593 3.308594 8.027343 4.363281 12.242187 3.179687v12.296875c0 6.894532 5.605469 12.5 12.5 12.5l26.882813-.003906c.488281.054688 1.527343.589844 1.804687.90625l8.5 12.109375c2.179688 3.101563 5.464844 4.878906 9.015625 4.878906 3.546875 0 6.832031-1.777343 9.011719-4.878906l8.457031-12.054687c.324219-.371094 1.359375-.910157 1.777344-.957032h26.953125c6.894531 0 12.5-5.605468 12.5-12.5v-3.4375l29.371094-29.371094 22.765625 22.765626c4.875 4.875 12.804687 4.875 17.675781 0l64.070312-64.066407v4.851563c0 4.144531 3.359376 7.5 7.5 7.5 4.140626 0 7.5-3.355469 7.5-7.5v-23.867188c0-4.140625-3.359374-7.5-7.5-7.5h-23.867187c-4.140625 0-7.5 3.359375-7.5 7.5 0 4.144532 3.359375 7.5 7.5 7.5h6.667969l-63.210938 63.207032-22.765625-22.765626c-4.871093-4.871093-12.800781-4.871093-17.675781 0l-20.53125 20.535157v-7.011719c0-6.894531-5.605469-12.5-12.5-12.5h-4.574219l33.074219-33.070312v5.941406c0 4.144531 3.359375 7.5 7.5 7.5s7.5-3.355469 7.5-7.5v-25c0-4.144532-3.359375-7.5-7.5-7.5h-25c-4.140625 0-7.5 3.355468-7.5 7.5 0 4.144531 3.359375 7.5 7.5 7.5h7.84375l-38.578125 38.578125-24.269531-24.269531c-4.875-4.875-12.804688-4.871094-17.675782 0l-30.320312 30.320312h-.402344c-6.894531 0-12.5 5.605469-12.5 12.5v.402344l-3.40625 3.40625-21.257812-21.261719c-4.875-4.871094-12.804688-4.871094-17.675782 0l-38.257812 38.257813v-115.5625h39.5c4.140625 0 7.5-3.355469 7.5-7.5 0-4.144532-3.359375-7.5-7.5-7.5h-47c-4.140625 0-7.5 3.355468-7.5 7.5v140.972656c-.003906.140625-.003906.273437 0 .414062v88.613282c0 4.144531 3.359375 7.5 7.5 7.5h382c4.140625 0 7.5-3.355469 7.5-7.5v-230c0-4.144532-3.359375-7.5-7.5-7.5h-26.5v-10h41.5c1.355469 0 2.5 1.144531 2.5 2.5v87.757812c0 4.144531 3.359375 7.5 7.5 7.5s7.5-3.355469 7.5-7.5v-87.757812c0-9.648438-7.851562-17.5-17.5-17.5h-43.117188c-2.148437-3.796876-6.21875-6.371094-10.882812-6.371094h-105c-4.664062 0-8.734375 2.574218-10.882812 6.371094h-242.117188c-9.648438 0-17.5 7.851562-17.5 17.5v262.5h-15c-9.648438 0-17.5 7.851562-17.5 17.5v19.257812c0 9.648438 7.851562 17.5 17.5 17.5h333.5c4.140625 0 7.5-3.355469 7.5-7.5s-3.359375-7.5-7.5-7.5h-333.5c-1.355469 0-2.5-1.144531-2.5-2.5v-19.257812c0-1.355469 1.144531-2.5 2.5-2.5h174.113281l6.890625 11.929687c2.703125 4.683594 8.589844 8.082031 13.992188 8.082031h87.007812c5.40625 0 11.292969-3.398437 13.996094-8.082031l6.886719-11.929687h174.113281c1.355469 0 2.5 1.144531 2.5 2.5v19.257812c0 1.355469-1.144531 2.5-2.5 2.5h-108.5c-4.140625 0-7.5 3.355469-7.5 7.5s3.359375 7.5 7.5 7.5h108.5c9.648438 0 17.5-7.851562 17.5-17.5v-19.257812c0-9.648438-7.851562-17.5-17.5-17.5zm-239-116.082032h-24.453125c-5.15625 0-11.050781 3.0625-14.011719 7.28125l-5.238281 7.460938-5.234375-7.460938c-2.964844-4.21875-8.855469-7.28125-14.011719-7.28125h-24.453125v-26.660156h87.402344zm-50.34375-59.605468 17.945312 17.945312h-35.886718zm181.84375 110.945312c4.6875 0 8.5 3.8125 8.5 8.5s-3.8125 8.5-8.5 8.5-8.5-3.8125-8.5-8.5 3.8125-8.5 8.5-8.5zm-88 0c4.6875 0 8.5 3.8125 8.5 8.5s-3.8125 8.5-8.5 8.5-8.5-3.8125-8.5-8.5 3.8125-8.5 8.5-8.5zm-88 0c4.6875 0 8.5 3.8125 8.5 8.5s-3.8125 8.5-8.5 8.5-8.5-3.8125-8.5-8.5 3.8125-8.5 8.5-8.5zm-88 0c4.6875 0 8.5 3.8125 8.5 8.5s-3.8125 8.5-8.5 8.5-8.5-3.8125-8.5-8.5 3.8125-8.5 8.5-8.5zm-50.5 39.742188v-23.769532c.164062.011719.332031.027344.5.027344h27.734375c3.136719 9.289062 11.929687 16 22.265625 16s19.128906-6.710938 22.265625-16h43.46875c3.136719 9.289062 11.929687 16 22.265625 16s19.128906-6.710938 22.265625-16h43.46875c3.140625 9.289062 11.929687 16 22.269531 16 10.335938 0 19.125-6.710938 22.265625-16h43.46875c3.136719 9.289062 11.929688 16 22.265625 16 10.335938 0 19.125-6.710938 22.265625-16h30.230469v23.742188zm333-214.585938h-29c-5.15625 0-11.050781 3.0625-14.011719 7.28125l-6.988281 9.957031-6.988281-9.957031c-2.964844-4.21875-8.855469-7.28125-14.015625-7.28125h-29v-31.785156h100v31.785156zm-104.941406 258.925781c-.230469.253907-.824219.597657-1.15625.671875h-86.804688c-.332031-.074218-.925781-.417968-1.15625-.671875l-2.507812-4.339843h94.132812zm0 0"/>
		<path d="m33 386.742188c-4.140625 0-7.5 3.355468-7.5 7.5 0 4.144531 3.359375 7.5 7.5 7.5h57c4.140625 0 7.5-3.355469 7.5-7.5 0-4.144532-3.359375-7.5-7.5-7.5zm0 0"/>
		<path d="m432.300781 399.539062c1.398438-1.390624 2.199219-3.320312 2.199219-5.300781 0-1.96875-.800781-3.910156-2.199219-5.300781-1.390625-1.398438-3.332031-2.199219-5.300781-2.199219-1.980469 0-3.910156.800781-5.300781 2.199219-1.398438 1.390625-2.199219 3.332031-2.199219 5.300781 0 1.980469.800781 3.910157 2.199219 5.300781 1.390625 1.402344 3.320312 2.199219 5.300781 2.199219 1.96875 0 3.910156-.796875 5.300781-2.199219zm0 0"/>
		<path d="m458.480469 399.539062c1.390625-1.390624 2.199219-3.320312 2.199219-5.300781 0-1.96875-.808594-3.898437-2.199219-5.300781-1.402344-1.398438-3.332031-2.199219-5.308594-2.199219-1.972656 0-3.902344.800781-5.300781 2.199219-1.390625 1.390625-2.199219 3.332031-2.199219 5.300781 0 1.980469.808594 3.910157 2.199219 5.300781 1.398437 1.402344 3.328125 2.199219 5.300781 2.199219 1.976563 0 3.90625-.796875 5.308594-2.199219zm0 0"/>
		<path d="m484.648438 399.539062c1.402343-1.390624 2.203124-3.320312 2.203124-5.300781 0-1.96875-.800781-3.910156-2.203124-5.300781-1.398438-1.398438-3.328126-2.199219-5.296876-2.199219-1.980468 0-3.910156.800781-5.3125 2.199219-1.390624 1.390625-2.1875 3.332031-2.1875 5.300781 0 1.980469.796876 3.910157 2.1875 5.300781 1.402344 1.402344 3.332032 2.199219 5.3125 2.199219 1.96875 0 3.898438-.796875 5.296876-2.199219zm0 0"/>
		<path d="m176.851562 150.871094c0-4.144532-3.359374-7.5-7.5-7.5h-71.351562c-4.140625 0-7.5 3.355468-7.5 7.5 0 4.144531 3.359375 7.5 7.5 7.5h71.351562c4.144532 0 7.5-3.355469 7.5-7.5zm0 0"/>
		<path d="m98 166.710938c-4.140625 0-7.5 3.355468-7.5 7.5 0 4.140624 3.359375 7.5 7.5 7.5h31.882812c4.140626 0 7.5-3.359376 7.5-7.5 0-4.144532-3.359374-7.5-7.5-7.5zm0 0"/>
		<path d="m321.511719 118.941406h32c4.140625 0 7.5-3.355468 7.5-7.5 0-4.144531-3.359375-7.5-7.5-7.5h-32c-4.144531 0-7.5 3.355469-7.5 7.5 0 4.144532 3.355469 7.5 7.5 7.5zm0 0"/>
		<path d="m375.511719 118.941406h13.976562c4.144531 0 7.5-3.355468 7.5-7.5 0-4.144531-3.355469-7.5-7.5-7.5h-13.976562c-4.144531 0-7.5 3.355469-7.5 7.5 0 4.144532 3.355469 7.5 7.5 7.5zm0 0"/>
		<path d="m98 61.785156 31.429688-.003906c.488281.050781 1.523437.589844 1.804687.90625l10.253906 14.605469c2.175781 3.101562 5.460938 4.878906 9.011719 4.878906s6.835938-1.777344 9.011719-4.878906l10.210937-14.550781c.324219-.371094 1.359375-.910157 1.777344-.960938h31.5c6.894531 0 12.5-5.605469 12.5-12.5v-36.78125c0-6.894531-5.605469-12.5-12.5-12.5h-105c-6.894531 0-12.5 5.605469-12.5 12.5v36.785156c0 6.890625 5.605469 12.5 12.5 12.5zm2.5-46.785156h100v31.785156h-29c-5.15625 0-11.046875 3.0625-14.011719 7.28125l-6.988281 9.957032-6.988281-9.957032c-2.964844-4.21875-8.855469-7.28125-14.011719-7.28125h-29zm0 0"/>
		<path d="m156.011719 30.070312c0-4.144531-3.359375-7.5-7.5-7.5h-32c-4.144531 0-7.5 3.355469-7.5 7.5 0 4.144532 3.355469 7.5 7.5 7.5h32c4.140625 0 7.5-3.355468 7.5-7.5zm0 0"/>
		<path d="m170.511719 37.570312h13.976562c4.144531 0 7.5-3.355468 7.5-7.5 0-4.144531-3.355469-7.5-7.5-7.5h-13.976562c-4.144531 0-7.5 3.355469-7.5 7.5 0 4.144532 3.355469 7.5 7.5 7.5zm0 0"/>
		<path d="m181.53125 245.097656h28.496094c4.140625 0 7.5-3.355468 7.5-7.5 0-4.140625-3.359375-7.5-7.5-7.5h-28.496094c-4.140625 0-7.5 3.359375-7.5 7.5 0 4.144532 3.359375 7.5 7.5 7.5zm0 0"/>
		<path d="m229.617188 245.097656h12.445312c4.144531 0 7.5-3.355468 7.5-7.5 0-4.140625-3.355469-7.5-7.5-7.5h-12.445312c-4.140626 0-7.5 3.359375-7.5 7.5 0 4.144532 3.359374 7.5 7.5 7.5zm0 0"/>
	</symbol>
	<symbol id="analysis" viewBox="0 0 480.182 480.182">
		<title>analysis</title>
		<g>
			<g>
				<path d="M200.182,32.106c-92.784,0-168,75.216-168,168s75.216,168,168,168s168-75.216,168-168 C368.081,107.364,292.924,32.207,200.182,32.106z M200.182,48.106c49.416,0.039,95.723,24.123,124.128,64.56l-20,20 c-4.867-2.945-10.439-4.521-16.128-4.56c-17.673,0-32,14.327-32,32c0.028,5.695,1.595,11.276,4.536,16.152l-52.384,52.384 c-9.919-6.048-22.385-6.048-32.304,0l-36.384-36.384c2.941-4.876,4.508-10.457,4.536-16.152 c0.022-17.638-14.258-31.954-31.896-31.976c-14.587-0.018-27.332,9.849-30.968,23.976h-29.68 C66.785,98.159,128.614,48.211,200.182,48.106z M304.182,160.106c0,8.837-7.163,16-16,16s-16-7.163-16-16s7.163-16,16-16 S304.182,151.269,304.182,160.106z M208.182,256.106c0,8.837-7.163,16-16,16s-16-7.163-16-16c0-8.837,7.163-16,16-16 S208.182,247.269,208.182,256.106z M128.182,176.106c0,8.837-7.163,16-16,16s-16-7.163-16-16s7.163-16,16-16 S128.182,167.269,128.182,176.106z M274.036,333.012c-22.592,12.544-48.012,19.116-73.854,19.093 c-83.89,0.057-151.943-67.902-152-151.792c-0.004-5.414,0.282-10.825,0.856-16.208h32.28c3.637,14.085,16.317,23.945,30.864,24 c5.695-0.028,11.276-1.595,16.152-4.536l36.384,36.384c-2.941,4.876-4.508,10.457-4.536,16.152c0,17.673,14.327,32,32,32 s32-14.327,32-32c-0.028-5.695-1.595-11.276-4.536-16.152l52.384-52.384c4.876,2.941,10.457,4.508,16.152,4.536 c17.673,0,32-14.327,32-32c-0.028-5.695-1.595-11.276-4.536-16.152l17.44-17.432C373.801,199.849,347.363,292.298,274.036,333.012 z"/>
			</g>
		</g>
		<g>
			<g>
				<path d="M400.182,80.106c14.547-0.055,27.227-9.914,30.864-24h49.136v-16h-49.136c-3.637-14.086-16.317-23.945-30.864-24 c-17.673,0-32,14.327-32,32c0.028,5.695,1.595,11.276,4.536,16.152l-14.056,14.056C291.407-9.307,165.855-25.817,78.234,41.438 S-25.897,234.246,41.358,321.867c63.484,82.707,179.855,102.77,267.368,46.095l24.144,24.144l11.312,11.312l64.4,64.4 c16.379,16.379,42.933,16.379,59.312,0c16.379-16.379,16.379-42.933,0-59.312l-64.4-64.4l-11.312-11.312l-24.144-24.144 c42.859-66.016,42.859-151.071,0-217.088l16-16C388.911,78.504,394.49,80.074,400.182,80.106z M400.182,32.106 c8.837,0,16,7.163,16,16s-7.163,16-16,16s-16-7.163-16-16S391.346,32.106,400.182,32.106z M456.582,419.818 c10.246,10.016,10.433,26.442,0.417,36.688c-10.016,10.246-26.442,10.433-36.688,0.417c-0.141-0.137-0.279-0.276-0.417-0.417 l-64.4-64.4l36.688-36.688L456.582,419.818z M380.87,344.106l-36.688,36.688l-22.144-22.144c1.128-0.864,2.184-1.816,3.296-2.704 s2.4-1.952,3.592-2.952c1.752-1.472,3.48-2.96,5.176-4.488c0.872-0.8,1.704-1.6,2.56-2.4c3.28-3.072,6.456-6.248,9.528-9.528 c0.8-0.856,1.6-1.688,2.4-2.56c1.528-1.696,3.016-3.424,4.488-5.176c1.003-1.184,1.987-2.381,2.952-3.592 c0.88-1.104,1.832-2.16,2.696-3.288L380.87,344.106z M349.846,306.946c-2.52,3.52-5.12,6.968-7.864,10.288 c-0.8,0.968-1.656,1.904-2.48,2.856c-2.448,2.848-4.976,5.611-7.584,8.288c-1.136,1.173-2.291,2.328-3.464,3.464 c-2.667,2.608-5.429,5.136-8.288,7.584c-0.952,0.8-1.888,1.672-2.856,2.48c-3.32,2.744-6.768,5.344-10.288,7.864 c-82.816,59.165-197.915,39.992-257.08-42.824S9.95,109.031,92.766,49.866S290.681,9.873,349.846,92.69 C395.627,156.772,395.627,242.864,349.846,306.946z"/>
			</g>
		</g>
	</symbol>
	<symbol id="creative" viewBox="0 0 64 64">
		<title>creative</title>
		<circle cx="46" cy="35" r="1"/>
		<circle cx="50" cy="35" r="1"/>
		<path d="M45.88,37.71a1,1,0,0,0,0,1.41,3,3,0,0,0,4.24,0,1,1,0,0,0-1.41-1.41,1,1,0,0,1-1.42,0A1,1,0,0,0,45.88,37.71Z"/>
		<path d="M61,56H58V47a5,5,0,0,0-5-5h-.11A7,7,0,0,0,55,37V35.9A5,5,0,0,0,59,31V29a5,5,0,0,0-5-5H38a1,1,0,0,0-1,1v6a5,5,0,0,0,4,4.9V37a7,7,0,0,0,2.11,5H43a5,5,0,0,0-5,5v5H36a3,3,0,0,0-3,3v1H30V55a3,3,0,0,0-3-3H24.62l-1-2H30a4,4,0,0,0,4-4V30a4,4,0,0,0-4-4H21V17.93A8.26,8.26,0,0,0,22,18a8,8,0,0,0,6-2.73V21a1,1,0,0,0,1,1H43a1,1,0,0,0,1-1V7a1,1,0,0,0-1-1H28.93A8,8,0,0,0,14,10a8.24,8.24,0,0,0,.26,2H8a1,1,0,0,0-1,1V26H6a4,4,0,0,0-4,4V46a4,4,0,0,0,4,4h6.38l-1,2H9a3,3,0,0,0-3,3v1H3a1,1,0,0,0-1,1v4a1,1,0,0,0,2,0V58H60v3a1,1,0,0,0,2,0V57A1,1,0,0,0,61,56Zm-5-9v9H54V49a1,1,0,0,0-2,0v7H49V48.28L51.57,44H53A3,3,0,0,1,56,47Zm-6.77-3L48,46.06,46.77,44ZM39,31V26H54a3,3,0,0,1,3,3v2a3,3,0,0,1-2,2.82V31a1,1,0,0,0-1-1H48.61a10.87,10.87,0,0,1-6.06-1.83,1,1,0,0,0-1-.05A1,1,0,0,0,41,29v4.82A3,3,0,0,1,39,31Zm4,6V30.72A12.88,12.88,0,0,0,48.61,32H53v5a5,5,0,0,1-10,0ZM40,47a3,3,0,0,1,3-3h1.43L47,48.28v3.9A3,3,0,0,0,46,52H44V49a1,1,0,0,0-2,0v3H40ZM35.38,20H30.62L33,15.24,35.38,20Zm2.24,0,.88-1.76L39.38,20ZM38,9a1,1,0,1,1-1-1A1,1,0,0,1,38,9ZM30,8h4.18a3,3,0,1,0,5.64,0H42V20h-.38l-2.23-4.45a1,1,0,0,0-1.78,0L36.5,17.76l-2.61-5.21a1,1,0,0,0-1.78,0L30,16.76ZM22,4a6,6,0,1,1-6,6A6,6,0,0,1,22,4ZM9,14h6.08A8.06,8.06,0,0,0,19,17.41V26H9ZM4,46V30a2,2,0,0,1,2-2H30a2,2,0,0,1,2,2V46a2,2,0,0,1-2,2H23V41a5,5,0,0,0-10,0v7H6A2,2,0,0,1,4,46Zm10.89,3.45a0,0,0,0,0,0,0A1,1,0,0,0,15,49V41a3,3,0,0,1,6,0v8a1,1,0,0,0,.1.42,0,0,0,0,0,0,0L22.38,52H13.62ZM8,56V55a1,1,0,0,1,1-1H27a1,1,0,0,1,1,1v1Zm27-1a1,1,0,0,1,1-1H46a1,1,0,0,1,1,1v1H35Z"/>
		<path d="M19.47,13.85A1,1,0,0,0,20,14a1,1,0,0,0,.45-.11l6-3a1,1,0,0,0,0-1.78l-6-3A1,1,0,0,0,19,7v6A1,1,0,0,0,19.47,13.85ZM21,8.62,23.76,10,21,11.38Z"/>
		<path d="M16,17H12a1,1,0,0,0,0,2h4a1,1,0,0,0,0-2Z"/>
		<path d="M16,21H12a1,1,0,0,0,0,2h4a1,1,0,0,0,0-2Z"/>
		<path d="M55,12a3,3,0,0,0,3-3V5a3,3,0,0,0-6,0V9A3,3,0,0,0,55,12ZM54,5a1,1,0,0,1,2,0V9a1,1,0,0,1-2,0Z"/>
		<path d="M54,15.92V18H51a1,1,0,0,0,0,2h8a1,1,0,0,0,0-2H56V15.92A7,7,0,0,0,62,9a1,1,0,0,0-2,0A5,5,0,0,1,50,9a1,1,0,0,0-2,0A7,7,0,0,0,54,15.92Z"/>
	</symbol>
	<symbol id="pop-up" viewBox="0 -30 512.001 512">
		<title>pop-up</title>
		<path d="m246.488281 359.613281h-32.703125c-4.144531 0-7.5 3.359375-7.5 7.5s3.355469 7.5 7.5 7.5h32.703125c4.140625 0 7.5-3.359375 7.5-7.5s-3.359375-7.5-7.5-7.5zm0 0"/>
		<path d="m68.390625 224.382812h-14.144531c-4.140625 0-7.5 3.359376-7.5 7.5 0 4.144532 3.359375 7.5 7.5 7.5h14.144531c4.140625 0 7.5-3.355468 7.5-7.5 0-4.140624-3.359375-7.5-7.5-7.5zm0 0"/>
		<path d="m68.390625 246.480469h-14.144531c-4.140625 0-7.5 3.355469-7.5 7.5 0 4.140625 3.359375 7.5 7.5 7.5h14.144531c4.140625 0 7.5-3.359375 7.5-7.5 0-4.144531-3.359375-7.5-7.5-7.5zm0 0"/>
		<path d="m68.390625 268.578125h-14.144531c-4.140625 0-7.5 3.355469-7.5 7.5 0 4.140625 3.359375 7.5 7.5 7.5h14.144531c4.140625 0 7.5-3.359375 7.5-7.5 0-4.144531-3.359375-7.5-7.5-7.5zm0 0"/>
		<path d="m68.390625 290.671875h-14.144531c-4.140625 0-7.5 3.359375-7.5 7.5 0 4.144531 3.359375 7.5 7.5 7.5h14.144531c4.140625 0 7.5-3.355469 7.5-7.5 0-4.140625-3.359375-7.5-7.5-7.5zm0 0"/>
		<path d="m68.390625 312.769531h-14.144531c-4.140625 0-7.5 3.355469-7.5 7.5 0 4.140625 3.359375 7.5 7.5 7.5h14.144531c4.140625 0 7.5-3.359375 7.5-7.5 0-4.144531-3.359375-7.5-7.5-7.5zm0 0"/>
		<path d="m146.609375 268.578125h-56.570313c-4.140624 0-7.5 3.355469-7.5 7.5 0 4.140625 3.359376 7.5 7.5 7.5h56.570313c4.144531 0 7.5-3.359375 7.5-7.5 0-4.144531-3.355469-7.5-7.5-7.5zm0 0"/>
		<path d="m146.609375 290.671875h-56.570313c-4.140624 0-7.5 3.359375-7.5 7.5 0 4.144531 3.359376 7.5 7.5 7.5h56.570313c4.144531 0 7.5-3.355469 7.5-7.5 0-4.140625-3.355469-7.5-7.5-7.5zm0 0"/>
		<path d="m146.609375 312.769531h-56.570313c-4.140624 0-7.5 3.355469-7.5 7.5 0 4.140625 3.359376 7.5 7.5 7.5h56.570313c4.144531 0 7.5-3.359375 7.5-7.5 0-4.144531-3.355469-7.5-7.5-7.5zm0 0"/>
		<path d="m160.058594 202.664062h29.410156c4.140625 0 7.5-3.359374 7.5-7.5 0-4.140624-3.359375-7.5-7.5-7.5h-29.410156c-4.140625 0-7.5 3.359376-7.5 7.5 0 4.140626 3.359375 7.5 7.5 7.5zm0 0"/>
		<path d="m199.816406 210.535156h-50.105468c-4.140626 0-7.5 3.359375-7.5 7.5 0 4.144532 3.359374 7.5 7.5 7.5h50.105468c4.140625 0 7.5-3.355468 7.5-7.5 0-4.140625-3.359375-7.5-7.5-7.5zm0 0"/>
		<path d="m427.1875 175.164062h-117.632812c-11.945313 0-21.660157 9.714844-21.660157 21.660157 0 11.941406 9.714844 21.660156 21.660157 21.660156h117.632812c11.941406 0 21.660156-9.71875 21.660156-21.660156 0-11.945313-9.71875-21.660157-21.660156-21.660157zm0 28.320313h-117.632812c-3.671876 0-6.660157-2.988281-6.660157-6.660156s2.988281-6.660157 6.660157-6.660157h117.632812c3.671875 0 6.660156 2.988282 6.660156 6.660157s-2.988281 6.660156-6.660156 6.660156zm0 0"/>
		<path d="m295.394531 131.347656h50.101563c4.140625 0 7.5-3.355468 7.5-7.5 0-4.140625-3.359375-7.5-7.5-7.5h-50.101563c-4.144531 0-7.5 3.359375-7.5 7.5 0 4.144532 3.355469 7.5 7.5 7.5zm0 0"/>
		<path d="m295.394531 156.398438h96.9375c4.140625 0 7.5-3.355469 7.5-7.5 0-4.140626-3.359375-7.5-7.5-7.5h-96.9375c-4.144531 0-7.5 3.359374-7.5 7.5 0 4.144531 3.355469 7.5 7.5 7.5zm0 0"/>
		<path d="m166.503906 54.261719h-11.980468c-4.144532 0-7.5 3.359375-7.5 7.5 0 4.144531 3.355468 7.5 7.5 7.5h11.980468c4.140625 0 7.5-3.355469 7.5-7.5 0-4.140625-3.359375-7.5-7.5-7.5zm0 0"/>
		<path d="m507.449219 52.59375-11.703125-9.050781c-.238282-.277344-.527344-.96875-.554688-1.332031l1.835938-14.589844c.421875-3.351563-.558594-6.660156-2.691406-9.078125-2.433594-2.757813-6.203126-4.136719-10.035157-3.664063l-14.734375 1.832032c-.378906-.027344-1.101562-.324219-1.386718-.574219l-9.09375-11.625c-2.242188-2.867188-5.523438-4.511719-9.003907-4.511719s-6.761719 1.644531-9.003906 4.511719l-9.09375 11.625c-.285156.25-1.011719.546875-1.386719.574219l-14.734375-1.832032c-3.832031-.472656-7.601562.90625-10.035156 3.660156-2.132813 2.417969-3.113281 5.730469-2.691406 9.082032l1.023437 8.125h-271.058594c-7.136718 0-12.945312 5.808594-12.945312 12.945312v33.203125h-102.609375c-9.675781 0-17.546875 7.871094-17.546875 17.546875v276.820313c0 9.675781 7.871094 17.546875 17.546875 17.546875h154.507813v19.480468h-56.660157c-6.90625 0-12.527343 5.617188-12.527343 12.523438v13.171875c0 6.90625 5.621093 12.523437 12.527343 12.523437h46.605469c4.140625 0 7.5-3.355468 7.5-7.5 0-4.140624-3.359375-7.5-7.5-7.5h-44.132812v-8.21875h224.535156v8.21875h-144.402344c-4.140625 0-7.5 3.359376-7.5 7.5 0 4.144532 3.359375 7.5 7.5 7.5h146.878906c6.902344 0 12.519532-5.617187 12.519532-12.523437v-13.171875c0-6.90625-5.617188-12.523438-12.519532-12.523438h-56.664062v-19.480468h154.507812c9.675782 0 17.546875-7.871094 17.546875-17.546875v-114.78125h10.488281c7.136719 0 12.945313-5.808594 12.945313-12.945313v-140.289062l.601563.074218c3.832031.476563 7.597656-.90625 10.03125-3.664062 2.132812-2.417969 3.113281-5.726562 2.691406-9.082031l-1.835938-14.585938c.027344-.367187.316406-1.058593.554688-1.335937l11.703125-9.046875c2.894531-2.238281 4.550781-5.519531 4.550781-9.007813 0-3.484375-1.660156-6.765625-4.550781-9.003906zm-372.292969-1.847656h48.171875v22.550781h-48.171875zm0 110.203125.109375.015625c5.570313.691406 12.132813-2.015625 15.589844-6.441406l16.335937-20.882813 16.332032 20.886719c3.460937 4.421875 10.019531 7.132812 15.59375 6.4375l26.402343-3.28125-3.292969 26.160156c-.707031 5.59375 2.019532 12.15625 6.484376 15.605469l20.929687 16.183593-20.933594 16.1875c-4.210937 3.257813-6.871093 9.292969-6.5625 14.660157h-86.988281zm179.839844 100.53125v51.289062h-137.019532v-51.289062zm-41.78125 151.808593h-86.160156v-19.480468h86.160156zm172.054687-37.027343c0 1.382812-1.167969 2.546875-2.546875 2.546875h-425.175781c-1.382813 0-2.546875-1.164063-2.546875-2.546875v-276.816407c0-1.382812 1.164062-2.546874 2.546875-2.546874h102.609375v4.671874h-86.960938c-6.90625 0-12.523437 5.617188-12.523437 12.523438v228.304688c0 6.902343 5.617187 12.523437 12.523437 12.523437h393.878907c6.902343 0 12.523437-5.621094 12.523437-12.523437v-20.644532c0-4.140625-3.359375-7.5-7.5-7.5-4.144531 0-7.5 3.359375-7.5 7.5v18.167969h-388.925781v-223.351563h84.484375v13.238282h-62.894531c-5.796875 0-10.515625 4.71875-10.515625 10.515625v66.449219c0 5.796874 4.71875 10.511718 10.515625 10.511718h62.894531v7.097656h-30.117188c-4.140624 0-7.5 3.359376-7.5 7.5 0 4.144532 3.359376 7.5 7.5 7.5h30.117188v7.097657h-30.117188c-4.140624 0-7.5 3.359375-7.5 7.5s3.359376 7.5 7.5 7.5h72.933594v55.773437c0 5.796875 4.71875 10.515625 10.515625 10.515625h145.996094c5.796875 0 10.511719-4.71875 10.511719-10.515625v-55.773437h6.65625v55.773437c0 5.796875 4.71875 10.515625 10.515625 10.515625h57.609375c5.796875 0 10.511718-4.71875 10.511718-10.515625v-55.773437h9.308594v24.273437c0 4.144532 3.355469 7.5 7.5 7.5 4.140625 0 7.5-3.355468 7.5-7.5v-24.273437h5.671875zm-325.113281-231.453125v57.476562h-58.410156v-57.476562zm231.496094 167.960937v-51.289062h48.636718v51.289062zm117.050781-66.289062h-231.476563l-.113281-.875c-.011719-.507813.449219-1.609375.773438-1.921875l24.296875-18.785156c2.980468-2.308594 4.691406-5.683594 4.6875-9.269532 0-3.582031-1.707032-6.957031-4.6875-9.261718l-24.253906-18.75c-.371094-.351563-.828126-1.449219-.820313-1.902344l3.816406-30.328125c.46875-3.726563-.710937-7.320313-3.242187-9.851563-2.527344-2.535156-6.113282-3.722656-9.847656-3.257812l-30.515626 3.796875c-.546874.011719-1.65625-.457031-1.980468-.792969l-18.886719-24.144531c-2.308594-2.957031-5.6875-4.648438-9.261719-4.648438-.003906 0-.003906 0-.003906 0-3.574219 0-6.953125 1.691407-9.261719 4.648438l-18.851562 24.101562c-.359375.378907-1.472657.839844-1.949219.839844-.003906 0-.007812 0-.011719 0l-1.960937-.246094v-57.535156h204.847656c4.140625 0 7.5-3.359375 7.5-7.5s-3.359375-7.5-7.5-7.5h-141.671875v-22.550781h196.777344l-2.386719 1.847656c-2.894531 2.238281-4.550781 5.519531-4.550781 9.003906 0 3.488282 1.65625 6.769532 4.550781 9.007813l3.480469 2.691406h-18.199219c-4.140625 0-7.5 3.359375-7.5 7.5s3.359375 7.5 7.5 7.5h26.054688l-.917969 7.277344c-.417969 3.351562.5625 6.664062 2.695312 9.082031 2.429688 2.753906 6.203125 4.136719 10.03125 3.660156l14.734375-1.832031c.378906.027344 1.101563.324219 1.390625.574219l9.09375 11.625c2.242188 2.867187 5.523438 4.511718 9 4.511718 3.480469 0 6.761719-1.644531 9.003907-4.511718l9.09375-11.625c.117187-.101563.3125-.210938.523437-.304688zm17.796875-178.640625c-4.265625 3.296875-6.875 9.574218-6.203125 14.929687l1.269531 10.09375-10.234375-1.273437c-.5625-.070313-1.148437-.105469-1.730469-.105469-4.953124 0-10.25 2.519531-13.183593 6.265625l-6.335938 8.097656-6.335937-8.097656c-2.929688-3.746094-8.226563-6.265625-13.179688-6.265625-.585937 0-1.167968.039063-1.730468.105469l-10.238282 1.273437 1.273438-10.097656c.671875-5.347656-1.9375-11.625-6.203125-14.925781l-8.074219-6.242188 8.074219-6.242187c4.265625-3.296875 6.875-9.574219 6.203125-14.925781l-1.273438-10.09375 10.238282 1.273437c.5625.066406 1.144531.101563 1.730468.101563 4.953125 0 10.25-2.515626 13.179688-6.261719l6.335937-8.101563 6.335938 8.101563c2.933593 3.746093 8.230469 6.261719 13.183593 6.261719.582032 0 1.167969-.035157 1.730469-.101563l10.234375-1.273437-1.269531 10.09375c-.671875 5.351562 1.933594 11.628906 6.199219 14.925781l8.078125 6.242187zm0 0"/>
		<path d="m437.160156 59.050781h25.84375c4.140625 0 7.5-3.359375 7.5-7.5 0-4.144531-3.359375-7.5-7.5-7.5h-25.84375c-4.140625 0-7.5 3.355469-7.5 7.5 0 4.140625 3.359375 7.5 7.5 7.5zm0 0"/>
		<path d="m465.875 64.148438h-31.585938c-4.140624 0-7.5 3.355468-7.5 7.5 0 4.140624 3.359376 7.5 7.5 7.5h31.585938c4.140625 0 7.5-3.359376 7.5-7.5 0-4.144532-3.355469-7.5-7.5-7.5zm0 0"/>
	</symbol>
	<symbol id="live-stream" viewBox="0 0 64 64">
		<title>live-stream</title>
		<path d="m40 27a1 1 0 0 0 1-1v-4a2 2 0 0 0 -2-2h-26a2 2 0 0 0 -2 2v22a2 2 0 0 0 2 2h26a2 2 0 0 0 2-2v-14a1 1 0 0 0 -2 0v4h-5a4 4 0 0 0 -2-3.42 4 4 0 1 0 -6.08 0 4 4 0 0 0 -1.92 3.42h-4v-1.18a3 3 0 0 0 2-2.82v-2a3 3 0 0 0 -6 0v2a3 3 0 0 0 2 2.82v1.18h-5v-12h26v4a1 1 0 0 0 1 1zm-22 1a1 1 0 0 1 2 0v2a1 1 0 0 1 -2 0zm11-2a2 2 0 1 1 -2 2 2 2 0 0 1 2-2zm-1 6h2a2 2 0 0 1 2 2h-6a2 2 0 0 1 2-2zm11 4v8h-26v-8z"/>
		<path d="m52 41h-8a1 1 0 0 0 -1 1v4a1 1 0 0 0 1 1h8a1 1 0 0 0 1-1v-4a1 1 0 0 0 -1-1zm-1 4h-6v-2h6z"/>
		<path d="m44 35h6a1 1 0 0 0 0-2h-6a1 1 0 0 0 0 2z"/>
		<path d="m44 31h2a1 1 0 0 0 0-2h-2a1 1 0 0 0 0 2z"/>
		<path d="m52 25h-8a1 1 0 0 0 0 2h8a1 1 0 0 0 0-2z"/>
		<path d="m44 23h4a1 1 0 0 0 0-2h-4a1 1 0 0 0 0 2z"/>
		<path d="m52 37h-8a1 1 0 0 0 0 2h8a1 1 0 0 0 0-2z"/>
		<path d="m16 42a1 1 0 0 0 1-1v-2a1 1 0 0 0 -2 0v2a1 1 0 0 0 1 1z"/>
		<path d="m19 42a1 1 0 0 0 1-1v-2a1 1 0 0 0 -2 0v2a1 1 0 0 0 1 1z"/>
		<path d="m22 41h14a1 1 0 0 0 0-2h-14a1 1 0 0 0 0 2z"/>
		<path d="m13 48a1 1 0 0 0 0 2h8a1 1 0 0 0 0-2z"/>
		<path d="m25 48a1 1 0 0 0 0 2h7a1 1 0 0 0 0-2z"/>
		<path d="m24.51 7.51a12 12 0 0 1 17 0 1 1 0 0 0 .7.3 1 1 0 0 0 .69-1.71 14 14 0 0 0 -19.8 0 1 1 0 0 0 0 1.41 1 1 0 0 0 1.41 0z"/>
		<path d="m39.36 10.64a1 1 0 0 0 .71-.3 1 1 0 0 0 0-1.41 10 10 0 0 0 -14.14 0 1 1 0 1 0 1.41 1.41 8 8 0 0 1 11.32 0 1 1 0 0 0 .7.3z"/>
		<path d="m28.76 11.76a1 1 0 0 0 1.41 1.41 4.1 4.1 0 0 1 5.66 0 1 1 0 0 0 1.41 0 1 1 0 0 0 0-1.41 6 6 0 0 0 -8.48 0z"/>
		<path d="m61 52h-52v-12a1 1 0 0 0 -2 0v12h-4a1 1 0 0 0 -1 1v2a7 7 0 0 0 7 7h31a1 1 0 0 0 0-2h-31a5 5 0 0 1 -5-5v-1h56v1a5 5 0 0 1 -5 5h-11a1 1 0 0 0 0 2h11a7 7 0 0 0 7-7v-2a1 1 0 0 0 -1-1z"/>
		<path d="m8 37a1 1 0 0 0 1-1v-15a3 3 0 0 1 3-3h40a3 3 0 0 1 3 3v28a1 1 0 0 0 2 0v-28a5 5 0 0 0 -5-5h-18v-1a1 1 0 0 0 -2 0v1h-20a5 5 0 0 0 -5 5v15a1 1 0 0 0 1 1z"/>
		<circle cx="11" cy="57" r="1"/>
		<circle cx="15" cy="57" r="1"/>
		<circle cx="49" cy="57" r="1"/>
		<circle cx="53" cy="57" r="1"/>
		<path d="m24 56a1 1 0 0 0 0 2h16a1 1 0 0 0 0-2z"/>
	</symbol>
	<symbol id="report" viewBox="0 -67 512 512">
		<title>report</title>
		<path d="m494.5 323h-15v-109.085938h2.5c6.894531 0 12.5-5.605468 12.5-12.5v-90.914062c0-6.894531-5.605469-12.5-12.5-12.5h-2.5v-37.5c0-9.648438-7.851562-17.5-17.5-17.5h-76.121094v-30.5c0-6.894531-5.609375-12.5-12.5-12.5h-234.757812c-6.890625 0-12.5 5.605469-12.5 12.5v30.5h-24.121094c-4.144531 0-7.5 3.359375-7.5 7.5s3.355469 7.5 7.5 7.5h24.121094v10h-61.121094c-4.144531 0-7.5 3.359375-7.5 7.5v76.289062h-10v-91.289062c0-1.355469 1.144531-2.5 2.5-2.5h16c4.140625 0 7.5-3.359375 7.5-7.5s-3.359375-7.5-7.5-7.5h-16c-9.648438 0-17.5 7.851562-17.5 17.5v91.289062h-1.066406c-6.894532 0-12.5 5.605469-12.5 12.5v108.210938c0 6.894531 5.605468 12.5 12.5 12.5h1.066406v38h-15c-9.648438 0-17.5 7.851562-17.5 17.5v19.257812c0 9.648438 7.851562 17.5 17.5 17.5h107.5c4.140625 0 7.5-3.359374 7.5-7.5 0-4.144531-3.359375-7.5-7.5-7.5h-107.5c-1.355469 0-2.5-1.144531-2.5-2.5v-19.257812c0-1.355469 1.144531-2.5 2.5-2.5h174.113281l6.890625 11.929688c2.699219 4.679687 8.585938 8.078124 13.992188 8.078124h87.007812c5.40625 0 11.292969-3.398437 13.992188-8.078124l6.890625-11.929688h174.113281c1.355469 0 2.5 1.144531 2.5 2.5v19.257812c0 1.355469-1.144531 2.5-2.5 2.5h-333.5c-4.144531 0-7.5 3.355469-7.5 7.5 0 4.140626 3.355469 7.5 7.5 7.5h333.5c9.648438 0 17.5-7.851562 17.5-17.5v-19.257812c0-9.648438-7.851562-17.5-17.5-17.5zm-108.621094-265h76.121094c1.355469 0 2.5 1.144531 2.5 2.5v37.5h-10v-22.5c0-4.140625-3.355469-7.5-7.5-7.5h-61.121094zm0 25h53.621094v15h-53.621094zm93.621094 30v85.914062h-116.203125v-85.914062zm-338.378906-98h229.757812v83h-10.082031c-6.894531 0-12.5 5.605469-12.5 12.5v90.914062c0 6.894532 5.605469 12.5 12.5 12.5h10.082031v19.714844c0 4.140625 3.355469 7.5 7.5 7.5 4.140625 0 7.5-3.359375 7.5-7.5v-19.714844h53.621094v84.085938h-53.621094v-29.371094c0-4.144531-3.359375-7.5-7.5-7.5-4.144531 0-7.5 3.355469-7.5 7.5v29.371094h-229.757812v-13h6.878906c6.894531 0 12.5-5.605469 12.5-12.5v-108.210938c0-6.894531-5.605469-12.5-12.5-12.5h-6.878906zm-68.621094 68h53.621094v68.789062h-53.621094zm-38.566406 83.789062h111.566406v103.210938h-111.566406zm92.1875 118.210938v13h-53.621094v-13zm174.4375 57.339844c-.230469.25-.824219.59375-1.15625.667968h-86.804688c-.332031-.074218-.925781-.417968-1.15625-.667968l-2.503906-4.339844h94.128906zm163.941406-19.339844h-417v-38h10v20.5c0 4.140625 3.355469 7.5 7.5 7.5h382c4.144531 0 7.5-3.359375 7.5-7.5v-91.585938h10zm0 0"/>
		<path d="m33 342c-4.144531 0-7.5 3.359375-7.5 7.5s3.355469 7.5 7.5 7.5h57c4.144531 0 7.5-3.359375 7.5-7.5s-3.355469-7.5-7.5-7.5zm0 0"/>
		<path d="m432.300781 354.796875c1.398438-1.390625 2.199219-3.320313 2.199219-5.300781 0-1.96875-.800781-3.90625-2.199219-5.296875-1.390625-1.402344-3.332031-2.203125-5.300781-2.203125s-3.910156.800781-5.308594 2.203125c-1.390625 1.390625-2.191406 3.328125-2.191406 5.296875 0 1.980468.800781 3.910156 2.191406 5.300781 1.398438 1.402344 3.339844 2.199219 5.308594 2.199219s3.910156-.796875 5.300781-2.199219zm0 0"/>
		<path d="m458.480469 354.796875c1.390625-1.390625 2.1875-3.320313 2.1875-5.300781 0-1.96875-.800781-3.90625-2.1875-5.296875-1.402344-1.402344-3.332031-2.203125-5.3125-2.203125-1.96875 0-3.898438.800781-5.300781 2.203125-1.398438 1.390625-2.199219 3.328125-2.199219 5.296875 0 1.980468.800781 3.910156 2.199219 5.300781 1.402343 1.402344 3.332031 2.199219 5.300781 2.199219 1.980469 0 3.910156-.796875 5.3125-2.199219zm0 0"/>
		<path d="m484.648438 354.808594c1.390624-1.402344 2.199218-3.332032 2.199218-5.3125 0-1.96875-.808594-3.90625-2.199218-5.296875-1.398438-1.402344-3.328126-2.203125-5.300782-2.203125-1.980468 0-3.910156.800781-5.308594 2.203125-1.390624 1.398437-2.191406 3.328125-2.191406 5.296875 0 1.980468.800782 3.910156 2.191406 5.3125 1.398438 1.390625 3.328126 2.1875 5.308594 2.1875 1.972656 0 3.902344-.796875 5.300782-2.1875zm0 0"/>
		<path d="m256 209.324219c42.25 0 76.625-34.390625 76.625-76.660157 0-42.269531-34.375-76.660156-76.625-76.660156s-76.625 34.390625-76.625 76.660156c0 42.269532 34.375 76.660157 76.625 76.660157zm61.152344-84.160157h-38.394532l30.863282-22.828124c3.914062 6.898437 6.53125 14.613281 7.53125 22.828124zm-53.652344-53.6875c14.570312 1.78125 27.582031 8.660157 37.195312 18.804688l-37.195312 27.507812zm-7.5 68.6875h32.480469c-3.410157 14.796876-16.671875 25.863282-32.480469 25.863282-18.382812 0-33.339844-14.96875-33.339844-33.363282 0-15.816406 11.058594-29.085937 25.839844-32.5v32.5c0 4.140626 3.359375 7.5 7.5 7.5zm-7.5-68.6875v13.410157c-23.105469 3.617187-40.839844 23.664062-40.839844 47.777343 0 26.667969 21.683594 48.363282 48.339844 48.363282 24.105469 0 44.144531-17.746094 47.757812-40.863282h13.394532c-3.710938 30.472657-29.710938 54.160157-61.148438 54.160157-33.984375 0-61.625-27.660157-61.625-61.660157-.003906-31.457031 23.667969-57.472656 54.121094-61.1875zm0 0"/>
		<path d="m124.949219 184.398438h-47.351563c-4.140625 0-7.5 3.359374-7.5 7.5 0 4.140624 3.359375 7.5 7.5 7.5h47.351563c4.144531 0 7.5-3.359376 7.5-7.5 0-4.140626-3.355469-7.5-7.5-7.5zm0 0"/>
		<path d="m124.949219 210.894531h-47.351563c-4.140625 0-7.5 3.359375-7.5 7.5s3.359375 7.5 7.5 7.5h47.351563c4.144531 0 7.5-3.359375 7.5-7.5s-3.355469-7.5-7.5-7.5zm0 0"/>
		<path d="m124.949219 237.390625h-47.351563c-4.140625 0-7.5 3.355469-7.5 7.5 0 4.140625 3.359375 7.5 7.5 7.5h47.351563c4.144531 0 7.5-3.359375 7.5-7.5 0-4.144531-3.355469-7.5-7.5-7.5zm0 0"/>
		<path d="m54.480469 184.398438c-1.972657 0-3.910157.800781-5.300781 2.199218-1.398438 1.390625-2.199219 3.332032-2.199219 5.300782 0 1.980468.800781 3.910156 2.199219 5.300781 1.390624 1.398437 3.328124 2.199219 5.300781 2.199219 1.980469 0 3.910156-.800782 5.300781-2.199219 1.398438-1.390625 2.199219-3.332031 2.199219-5.300781s-.800781-3.902344-2.199219-5.300782c-1.390625-1.398437-3.332031-2.199218-5.300781-2.199218zm0 0"/>
		<path d="m54.480469 210.898438c-1.972657 0-3.910157.800781-5.300781 2.191406-1.398438 1.398437-2.199219 3.328125-2.199219 5.308594 0 1.96875.800781 3.898437 2.199219 5.300781 1.390624 1.398437 3.328124 2.199219 5.300781 2.199219 1.96875 0 3.910156-.800782 5.300781-2.199219 1.398438-1.402344 2.199219-3.332031 2.199219-5.300781 0-1.980469-.800781-3.910157-2.199219-5.308594-1.390625-1.390625-3.332031-2.191406-5.300781-2.191406zm0 0"/>
		<path d="m54.480469 237.386719c-1.972657 0-3.910157.800781-5.300781 2.203125-1.398438 1.386718-2.199219 3.328125-2.199219 5.296875 0 1.972656.800781 3.910156 2.199219 5.300781 1.390624 1.402344 3.328124 2.199219 5.300781 2.199219 1.96875 0 3.910156-.796875 5.300781-2.199219 1.398438-1.390625 2.199219-3.328125 2.199219-5.300781 0-1.96875-.800781-3.898438-2.199219-5.296875-1.390625-1.402344-3.320312-2.203125-5.300781-2.203125zm0 0"/>
		<path d="m186.875 279h138.25c4.140625 0 7.5-3.359375 7.5-7.5s-3.359375-7.5-7.5-7.5h-2.839844v-30.667969c0-4.144531-3.359375-7.5-7.5-7.5-4.144531 0-7.5 3.355469-7.5 7.5v30.667969h-4.597656v-16.050781c0-4.140625-3.359375-7.5-7.5-7.5-4.144531 0-7.5 3.359375-7.5 7.5v16.050781h-4.59375v-33.105469c0-4.140625-3.355469-7.5-7.5-7.5s-7.5 3.359375-7.5 7.5v33.105469h-4.597656v-27.421875c0-4.140625-3.355469-7.5-7.5-7.5-4.140625 0-7.5 3.359375-7.5 7.5v27.421875h-4.59375v-38.789062c0-4.140626-3.355469-7.5-7.5-7.5-4.140625 0-7.5 3.359374-7.5 7.5v38.789062h-4.59375v-24.984375c0-4.140625-3.355469-7.5-7.5-7.5-4.144532 0-7.5 3.359375-7.5 7.5v24.984375h-4.59375v-5.492188c0-4.144531-3.359375-7.5-7.5-7.5-4.144532 0-7.5 3.355469-7.5 7.5v5.492188h-2.839844c-4.144531 0-7.5 3.359375-7.5 7.5s3.359375 7.5 7.5 7.5zm0 0"/>
		<path d="m211.28125 43h89.4375c4.140625 0 7.5-3.359375 7.5-7.5s-3.359375-7.5-7.5-7.5h-89.4375c-4.144531 0-7.5 3.359375-7.5 7.5s3.359375 7.5 7.5 7.5zm0 0"/>
		<path d="m385.722656 140.117188h71.351563c4.144531 0 7.5-3.355469 7.5-7.5 0-4.140626-3.355469-7.5-7.5-7.5h-71.351563c-4.144531 0-7.5 3.359374-7.5 7.5 0 4.144531 3.355469 7.5 7.5 7.5zm0 0"/>
		<path d="m385.722656 163.457031h71.351563c4.144531 0 7.5-3.359375 7.5-7.5 0-4.144531-3.355469-7.5-7.5-7.5h-71.351563c-4.144531 0-7.5 3.355469-7.5 7.5 0 4.140625 3.355469 7.5 7.5 7.5zm0 0"/>
		<path d="m385.722656 186.796875h31.878906c4.144532 0 7.5-3.359375 7.5-7.5 0-4.144531-3.355468-7.5-7.5-7.5h-31.878906c-4.144531 0-7.5 3.355469-7.5 7.5 0 4.140625 3.355469 7.5 7.5 7.5zm0 0"/>
	</symbol>
	<symbol id="search" viewBox="0 0 64 64">
		<title>search</title>
		<path d="m61.12 54.05-9.19-9.19a3.08 3.08 0 0 0 -3.4-.57l-4.87-4.87a18 18 0 0 0 -1.93-23.15 17.81 17.81 0 0 0 -3.73-2.85 11 11 0 0 0 -15.9-4.7 1 1 0 1 0 1.07 1.68 9 9 0 0 1 11.42 1.5 18 18 0 0 0 -16.73 3 1 1 0 0 0 1.24 1.57 16 16 0 0 1 17.56-1.47l.13.06a16 16 0 1 1 -21.93 21.42l1.57-1.34a14.27 14.27 0 0 0 2.67 3.76 14 14 0 0 0 23.14-5.38 1 1 0 1 0 -1.9-.64 12 12 0 0 1 -19.83 4.61 12.17 12.17 0 0 1 -2.51-3.69l6.38-5.42a10.95 10.95 0 0 0 12.73-4.24 1 1 0 1 0 -1.65-1.14 9 9 0 0 1 -7.46 4 9.49 9.49 0 0 1 -1.77-.18l2.42-2.06a1 1 0 0 0 -1.3-1.52l-3.35 2.83a9.08 9.08 0 0 1 -4.33-4.64c.26-.32.53-.62.82-.92a12 12 0 0 1 20.51 8.73 1 1 0 0 0 1 1 1 1 0 0 0 1-1 14 14 0 1 0 -27.34 3.9l-1.66 1.43a16 16 0 0 1 2.44-15.47 1 1 0 0 0 -1.57-1.24 18 18 0 0 0 -2.47 18.08l-5.05 4.3a1 1 0 0 0 -.35.76v10a1 1 0 0 0 2 0v-9.54l4.3-3.65a18.17 18.17 0 0 0 3 3.92 18 18 0 0 0 23.14 1.93l4.87 4.86a3 3 0 0 0 .58 3.41l9.19 9.19a3 3 0 0 0 4.24 0l2.83-2.83a3 3 0 0 0 -.03-4.24zm-42.71-30.69a10.93 10.93 0 0 0 4 4.09l-5.05 4.3a12 12 0 0 1 1.05-8.39zm23.32 18.37c.24-.24.45-.5.67-.75l4.6 4.58-1.44 1.44-4.56-4.6c.23-.22.49-.4.73-.67zm18 15.15-2.83 2.83a1 1 0 0 1 -1.42 0l-9.19-9.2a1 1 0 0 1 -.29-.7 1 1 0 0 1 .29-.71l2.83-2.83a1 1 0 0 1 .71-.29 1 1 0 0 1 .7.29l9.2 9.19a1 1 0 0 1 -.02 1.42z"/>
		<path d="m22.64 32a1 1 0 0 0 0 2h14.72a1 1 0 0 0 0-2z"/>
		<path d="m3 34h5.39a1 1 0 0 0 0-2h-4.39v-6h1a5 5 0 0 1 2.7.8 1 1 0 0 0 .54.16 1 1 0 0 0 .55-1.84 7 7 0 0 0 -3.79-1.12h-1v-12h1a7 7 0 0 0 7-7v-1h32v1a7 7 0 0 0 7 7h1v12h-1a6.83 6.83 0 0 0 -1.59.19 1 1 0 0 0 .22 2 .85.85 0 0 0 .23 0 5.15 5.15 0 0 1 1.14-.19h1v6h-2.39a1 1 0 0 0 0 2h3.39a1 1 0 0 0 1-1v-30a1 1 0 0 0 -1-1h-50a1 1 0 0 0 -1 1v30a1 1 0 0 0 1 1zm49-24h-1a5 5 0 0 1 -5-5v-1h6zm-42-6v1a5 5 0 0 1 -5 5h-1v-6z"/>
		<path d="m23 56h6a1 1 0 0 0 0-2h-6a1 1 0 0 0 0 2z"/>
		<path d="m35 58h-12a1 1 0 0 0 0 2h12a1 1 0 0 0 0-2z"/>
		<path d="m17 54h-14a1 1 0 0 0 -1 1v6a1 1 0 0 0 1 1h7a1 1 0 0 0 0-2h-6v-4h12v4h-2a1 1 0 0 0 0 2h3a1 1 0 0 0 1-1v-6a1 1 0 0 0 -1-1z"/>
	</symbol>
	<symbol id="chart" viewBox="0 0 64 64">
		<title>chart</title>
		<path d="M61,40a1,1,0,0,0-1,1v6a1,1,0,0,1-1,1H5a1,1,0,0,1-1-1V21a1,1,0,0,0-2,0V47a3,3,0,0,0,3,3H23.38l-3,6H14a1,1,0,0,0,0,2H50a1,1,0,0,1,1,1v1H12a1,1,0,0,0,0,2H52a1,1,0,0,0,1-1V59a3,3,0,0,0-3-3H43.62l-3-6H59a3,3,0,0,0,3-3V41A1,1,0,0,0,61,40ZM41.38,56H22.62l3-6H38.38Z"/>
		<path d="M59,6H5A3,3,0,0,0,2,9v8a1,1,0,0,0,2,0V9A1,1,0,0,1,5,8H59a1,1,0,0,1,1,1V37a1,1,0,0,0,2,0V9A3,3,0,0,0,59,6Z"/>
		<path d="M21,30a3,3,0,0,0-3,3,2.84,2.84,0,0,0,.38,1.42l-5.23,5.81A3,3,0,0,0,12,40a3,3,0,1,0,3,3,2.94,2.94,0,0,0-.37-1.42l5.22-5.81A3,3,0,0,0,21,36a3.06,3.06,0,0,0,1.44-.38l4.78,4.25A3,3,0,0,0,30,44a1,1,0,0,0,0-2,1,1,0,1,1,1-1,1,1,0,0,0,2,0,3,3,0,0,0-.57-1.75l5.79-8.37A2.89,2.89,0,0,0,39,31a3,3,0,0,0,1.29-.3l3,3a3,3,0,1,0,5.24-.29L53,27.82A2.93,2.93,0,0,0,54,28a3,3,0,0,0,0-6,1,1,0,0,0,0,2,1,1,0,1,1-1,1,1,1,0,0,0-2,0,3,3,0,0,0,.46,1.58L47,32.18A2.93,2.93,0,0,0,46,32a3,3,0,0,0-1.29.3l-3-3A3,3,0,1,0,36,28a3,3,0,0,0,.57,1.75l-5.79,8.37A2.89,2.89,0,0,0,30,38a3.06,3.06,0,0,0-1.44.38l-4.78-4.25A3,3,0,0,0,21,30Zm26,5a1,1,0,1,1-1-1A1,1,0,0,1,47,35Zm-8-8a1,1,0,1,1-1,1A1,1,0,0,1,39,27ZM12,44a1,1,0,1,1,1-1A1,1,0,0,1,12,44Zm8-11a1,1,0,1,1,1,1A1,1,0,0,1,20,33Z"/>
		<path d="M14,10a7,7,0,1,0,7,7A7,7,0,0,0,14,10Zm4.9,6H15V12.1A5,5,0,0,1,18.9,16ZM14,22a5,5,0,0,1-1-9.9V17a1,1,0,0,0,1,1h4.9A5,5,0,0,1,14,22Z"/>
		<circle cx="25" cy="16" r="1"/>
		<circle cx="29" cy="16" r="1"/>
		<circle cx="33" cy="16" r="1"/>
		<circle cx="37" cy="16" r="1"/>
		<circle cx="25" cy="20" r="1"/>
		<circle cx="29" cy="20" r="1"/>
		<circle cx="33" cy="20" r="1"/>
		<circle cx="37" cy="20" r="1"/>
		<circle cx="41" cy="20" r="1"/>
		<circle cx="45" cy="20" r="1"/>
		<circle cx="25" cy="12" r="1"/>
		<circle cx="29" cy="12" r="1"/>
		<path d="M58,41a1,1,0,0,0-1-1H52a1,1,0,0,0,0,2h5A1,1,0,0,0,58,41Z"/>
		<path d="M47,44a1,1,0,0,0,0,2h9a1,1,0,0,0,0-2Z"/>
		<path d="M56,10H44a1,1,0,0,0-1,1v4a1,1,0,0,0,1,1H56a1,1,0,0,0,1-1V11A1,1,0,0,0,56,10ZM45,12h2v2H45Zm4,0h2v2H49Zm6,2H53V12h2Z"/>
	</symbol>
</svg>